#N canvas 0 23 1680 1005 10;
#X declare -stdpath cyclone;
#X declare -stdpath iemlib;
#X declare -stdpath comport;
#X obj 1739 1131 line~;
#X obj 1809 973 del 1000;
#X msg 1831 1052 0.01 2000;
#X obj 1712 598 tgl 15 0 empty empty empty 17 7 0 10 -262144 -1 -1
1 1;
#X msg 1820 1028 1 100;
#X msg 1729 1029 0.8 100;
#X obj 1689 1131 pink~;
#X obj 1786 1131 line~;
#X obj 1830 1130 line~;
#X msg 1991 1026 0.5 120;
#X obj 1711 634 metro 6000;
#X msg 2003 1050 0.01 130;
#X obj 26 134 declare -stdpath cyclone;
#X obj 26 158 declare -stdpath iemlib;
#X obj 25 180 declare -stdpath comport;
#X obj 1042 94 tgl 15 0 empty empty empty 17 7 0 10 -262144 -1 -1 1
1;
#X msg 1042 128 \; pd dsp \$1;
#X obj 1042 22 loadbang;
#X obj 1042 44 bng 15 250 50 0 empty empty empty 17 7 0 10 -262144
-1 -1;
#X obj 1042 64 delay 5000;
#X floatatom 922 754 5 0 0 0 - - -, f 5;
#X obj 975 865 rand~ 10;
#X obj 922 925 +~, f 8;
#X obj 922 895 line~;
#X obj 953 1061 *~ 0.2;
#X obj 953 1014 rand~ 20;
#X obj 975 894 *~ 1.2;
#N canvas 323 279 450 300 formant3_M_heed 0;
#X obj 38 29 inlet~;
#X obj 38 210 outlet~;
#X obj 296 134 reson~ 1 3010 100;
#X obj 168 135 reson~ 1 2290 100;
#X obj 38 136 reson~ 1 270 100;
#X connect 0 0 2 0;
#X connect 0 0 3 0;
#X connect 0 0 4 0;
#X connect 2 0 1 0;
#X connect 3 0 1 0;
#X connect 4 0 1 0;
#X restore 54 1150 pd formant3_M_heed;
#N canvas 0 50 450 300 formant3_M_head 0;
#X obj 38 29 inlet~;
#X obj 38 210 outlet~;
#X obj 38 136 reson~ 1 530 100;
#X obj 168 135 reson~ 1 1840 100;
#X obj 296 134 reson~ 1 2480 100;
#X connect 0 0 2 0;
#X connect 0 0 3 0;
#X connect 0 0 4 0;
#X connect 2 0 1 0;
#X connect 3 0 1 0;
#X connect 4 0 1 0;
#X restore 188 1150 pd formant3_M_head;
#N canvas 0 50 450 300 formant3_M_had 0;
#X obj 38 29 inlet~;
#X obj 38 210 outlet~;
#X obj 38 136 reson~ 1 660 100;
#X obj 168 135 reson~ 1 1720 100;
#X obj 296 134 reson~ 1 2410 100;
#X connect 0 0 2 0;
#X connect 0 0 3 0;
#X connect 0 0 4 0;
#X connect 2 0 1 0;
#X connect 3 0 1 0;
#X connect 4 0 1 0;
#X restore 329 1148 pd formant3_M_had;
#N canvas 0 50 450 300 formant3_M_hod 0;
#X obj 38 29 inlet~;
#X obj 38 210 outlet~;
#X obj 38 136 reson~ 1 730 100;
#X obj 168 135 reson~ 1 1090 100;
#X obj 296 134 reson~ 1 2440 100;
#X connect 0 0 2 0;
#X connect 0 0 3 0;
#X connect 0 0 4 0;
#X connect 2 0 1 0;
#X connect 3 0 1 0;
#X connect 4 0 1 0;
#X restore 458 1148 pd formant3_M_hod;
#N canvas 0 50 450 300 formant3_M_haw'd 0;
#X obj 38 29 inlet~;
#X obj 38 210 outlet~;
#X obj 38 136 reson~ 1 570 100;
#X obj 168 135 reson~ 1 840 100;
#X obj 296 134 reson~ 1 2410 100;
#X connect 0 0 2 0;
#X connect 0 0 3 0;
#X connect 0 0 4 0;
#X connect 2 0 1 0;
#X connect 3 0 1 0;
#X connect 4 0 1 0;
#X restore 601 1147 pd formant3_M_haw'd;
#N canvas 2 101 450 300 formant3_M_who'd 0;
#X obj 38 29 inlet~;
#X obj 38 210 outlet~;
#X obj 296 134 reson~ 1 2240 120;
#X obj 168 135 reson~ 1 870 110;
#X obj 38 136 reson~ 1 300 90;
#X connect 0 0 2 0;
#X connect 0 0 3 0;
#X connect 0 0 4 0;
#X connect 2 0 1 0;
#X connect 3 0 1 0;
#X connect 4 0 1 0;
#X restore 755 1148 pd formant3_M_who'd;
#X obj 864 2031 dac~ 1 2;
#X obj 806 2076 vu 15 120 empty empty -1 -8 0 10 -66577 -1 1 0;
#X obj 805 2030 env~;
#X obj 805 2052 - 100;
#X obj 531 2243 bng 15 250 50 0 empty empty empty 17 7 0 10 -262144
-1 -1;
#X obj 956 2079 vu 15 120 empty empty -1 -8 0 10 -66577 -1 1 0;
#X obj 955 2033 env~;
#X obj 955 2055 - 100;
#X obj 1982 974 del 4960;
#X obj 1876 740 + 6000;
#X obj 1875 765 / 6000;
#X obj 1854 900 * 1000;
#X obj 1711 670 t b b b, f 24;
#X floatatom 1777 606 5 0 0 0 - - -, f 5;
#X floatatom 1967 614 5 0 0 0 - - -, f 5;
#X obj 1968 695 / 2;
#X msg 1810 1006 25 2000;
#X text 75 111 LIBRARIES NEEDED!;
#X text 884 755 FREQ;
#X obj 53 1076 line~;
#X obj 54 1116 *~, f 8;
#X obj 187 1076 line~;
#X obj 188 1116 *~, f 8;
#X obj 327 1071 line~;
#X obj 328 1111 *~, f 8;
#X obj 457 1077 line~;
#X obj 458 1117 *~, f 8;
#X obj 602 1076 line~;
#X obj 603 1116 *~, f 8;
#X obj 754 1076 line~;
#X obj 755 1116 *~, f 8;
#X obj 17 809 hradio 25 1 0 7 empty empty empty 0 -8 0 10 -262144 -1
-1 3;
#N canvas 0 50 450 300 onoff 0;
#X obj 34 29 inlet;
#X msg 88 69 0;
#X msg 34 70 1;
#X obj 34 92 outlet;
#X obj 88 91 outlet;
#X connect 0 0 2 0;
#X connect 0 0 1 0;
#X connect 1 0 4 0;
#X connect 2 0 3 0;
#X restore 53 915 pd onoff;
#N canvas 0 50 450 300 onoff 0;
#X obj 34 29 inlet;
#X msg 88 69 0;
#X msg 34 70 1;
#X obj 34 92 outlet;
#X obj 88 91 outlet;
#X connect 0 0 2 0;
#X connect 0 0 1 0;
#X connect 1 0 4 0;
#X connect 2 0 3 0;
#X restore 180 915 pd onoff;
#N canvas 0 50 450 300 onoff 0;
#X obj 34 29 inlet;
#X msg 88 69 0;
#X msg 34 70 1;
#X obj 34 92 outlet;
#X obj 88 91 outlet;
#X connect 0 0 2 0;
#X connect 0 0 1 0;
#X connect 1 0 4 0;
#X connect 2 0 3 0;
#X restore 319 914 pd onoff;
#N canvas 0 50 450 300 onoff 0;
#X obj 34 29 inlet;
#X msg 88 69 0;
#X msg 34 70 1;
#X obj 34 92 outlet;
#X obj 88 91 outlet;
#X connect 0 0 2 0;
#X connect 0 0 1 0;
#X connect 1 0 4 0;
#X connect 2 0 3 0;
#X restore 447 917 pd onoff;
#N canvas 0 50 450 300 onoff 0;
#X obj 34 29 inlet;
#X msg 88 69 0;
#X msg 34 70 1;
#X obj 34 92 outlet;
#X obj 88 91 outlet;
#X connect 0 0 2 0;
#X connect 0 0 1 0;
#X connect 1 0 4 0;
#X connect 2 0 3 0;
#X restore 583 914 pd onoff;
#N canvas 0 50 450 300 onoff 0;
#X obj 34 29 inlet;
#X msg 88 69 0;
#X msg 34 70 1;
#X obj 34 92 outlet;
#X obj 88 91 outlet;
#X connect 0 0 2 0;
#X connect 0 0 1 0;
#X connect 1 0 4 0;
#X connect 2 0 3 0;
#X restore 721 919 pd onoff;
#X obj 54 1035 pack f 40;
#X obj 188 1037 pack f 40;
#X obj 326 1036 pack f 40;
#X obj 453 1039 pack f 40;
#X obj 598 1039 pack f 40;
#X obj 753 1039 pack f 40;
#X floatatom 813 685 5 0 0 0 - - -, f 5;
#X obj 17 839 sel 0 1 2 3 4 5 6, f 115;
#X msg 15 916 0;
#X obj 492 609 metro 1000;
#X obj 492 722 mtof;
#X obj 495 447 tgl 15 0 empty empty empty 17 7 0 10 -262144 -1 -1 0
1;
#X obj 17 680 random 7;
#X floatatom 559 564 5 0 0 0 - - -, f 5;
#X floatatom 17 702 5 0 0 0 - - -, f 5;
#X floatatom 594 628 5 0 0 0 - - -, f 5;
#X obj 922 831 pack f 20, f 11;
#X floatatom 992 684 5 0 0 0 - - -, f 5;
#X floatatom 492 703 5 0 0 0 - - -, f 5;
#X text 536 696 SCELTA NOTA MIDI => FREQ "CANTATA";
#X text 634 628 MAX INTERVALLO (MIDI);
#X text 1003 722 VELOCITà GLISSANDO (ms), f 14;
#X text 1751 572 FAKE RESPIRO;
#X text 598 563 VELOCITà METRONOMO CAMBIO PARAMENTRI (ms);
#X text 373 449 ON/OFF METRONOMO;
#X text 82 680 SCELTA BANCO DI FILTRI PER FORMANTI == SCELTA VOCALE
;
#X text 643 54 ATMOSFACE MAIN PATCH;
#X text 1068 91 ON/OFF AUDIO (si accende da solo XD), f 26;
#N canvas 2 95 625 420 preset 0;
#X obj 184 454 unpack f f f f f, f 29;
#X obj 184 488 outlet;
#X obj 234 488 outlet;
#X obj 284 488 outlet;
#X obj 334 488 outlet;
#X obj 384 487 outlet;
#X obj 23 24 inlet;
#X msg 165 195 1 200 6 80 100;
#X msg 260 114 1 22 10 10 40;
#X msg 192 167 1 100 9 60 40, f 16;
#X msg 23 350 0 200 3 200 40;
#X msg 77 284 1 400 1 1200 100;
#X msg 108 250 1 600 1 2000 100;
#X msg 136 223 1 500 2 800 300;
#X obj 23 64 sel 0 1 2 3 4, f 39;
#X msg 220 141 1 22 3 20 40;
#X connect 0 0 1 0;
#X connect 0 1 2 0;
#X connect 0 2 3 0;
#X connect 0 3 4 0;
#X connect 0 4 5 0;
#X connect 6 0 14 0;
#X connect 7 0 0 0;
#X connect 8 0 0 0;
#X connect 9 0 0 0;
#X connect 10 0 0 0;
#X connect 11 0 0 0;
#X connect 12 0 0 0;
#X connect 13 0 0 0;
#X connect 14 0 10 0;
#X connect 14 1 12 0;
#X connect 14 2 13 0;
#X connect 14 3 9 0;
#X connect 14 4 15 0;
#X connect 15 0 0 0;
#X restore 496 359 pd preset;
#X obj 427 506 sel 1;
#X text 852 661 VELOCITà FADE TRA VOCALI (ms);
#X text 670 177 proximity 1;
#X text 804 178 proximity 2;
#X text 503 177 array touch;
#X obj 559 504 +;
#X obj 497 155 decoder, f 43;
#N canvas 4 101 469 382 sum 0;
#X obj 30 24 inlet;
#X obj 30 46 unpack f f f f f f f f f f;
#X obj 33 269 +;
#X obj 189 70 +;
#X obj 171 93 +;
#X obj 151 119 +;
#X obj 132 144 +;
#X obj 116 169 +;
#X obj 97 195 +;
#X obj 79 218 +;
#X obj 59 240 +;
#X obj 318 27 inlet;
#X obj 33 315 outlet;
#X obj 33 293 +, f 41;
#X connect 0 0 1 0;
#X connect 1 0 2 0;
#X connect 1 1 10 0;
#X connect 1 2 9 0;
#X connect 1 3 8 0;
#X connect 1 4 7 0;
#X connect 1 5 6 0;
#X connect 1 6 5 0;
#X connect 1 7 4 0;
#X connect 1 8 3 0;
#X connect 1 9 3 1;
#X connect 2 0 13 0;
#X connect 3 0 4 1;
#X connect 4 0 5 1;
#X connect 5 0 6 1;
#X connect 6 0 7 1;
#X connect 7 0 8 1;
#X connect 8 0 9 1;
#X connect 9 0 10 1;
#X connect 10 0 2 1;
#X connect 11 0 13 1;
#X connect 13 0 12 0;
#X restore 497 238 pd sum;
#X floatatom 496 291 5 0 0 0 - - -, f 5;
#X obj 922 955 phasor~ 440;
#X obj 953 1039 +~ 1.6;
#X floatatom 985 1172 5 0 0 0 - - -, f 5;
#X msg 985 1191 \$1 20;
#X obj 985 1213 line~;
#X obj 329 1306 *~;
#X obj 985 1143 loadmess 8;
#X obj 1876 695 random 1200;
#X obj 1876 718 - 400;
#X msg 1982 1004 50 150;
#X obj 492 681 + 21;
#X floatatom 793 207 5 0 0 0 - - -, f 5;
#X floatatom 645 205 5 0 0 0 - - -, f 5;
#X floatatom 1094 1029 5 0 0 0 - - -, f 5;
#X obj 661 348 / 6553.5;
#X obj 492 653 drunk 36 4, f 15;
#X floatatom 832 1341 5 0 0 0 - - -, f 5;
#X obj 832 1982 +~;
#X obj 948 1975 +~;
#X obj 1689 1174 reson~ 12 400 0.1;
#X msg 1923 1051 0.04 380;
#X floatatom 1087 1816 5 0 0 0 - - -, f 5;
#X msg 1087 1835 next \$1;
#X obj 1167 1521 tgl 15 0 empty empty empty 17 7 0 10 -262144 -1 -1
0 1;
#X obj 1174 1578 drunk 36 4, f 15;
#X obj 1174 1637 t f f b;
#X obj 1174 1755 +;
#X msg 1216 1716 4;
#X msg 1248 1715 7;
#X msg 1282 1715 8;
#X msg 1315 1716 10;
#X obj 1215 1667 random 5;
#X obj 1216 1689 sel 0 1 2 3 4, f 26;
#X msg 1357 1716 3;
#X obj 1174 1551 metro 2200;
#N canvas 0 50 450 300 harmonize 0;
#X obj 39 52 t f f b;
#X obj 37 189 +;
#X msg 81 131 4;
#X msg 113 130 7;
#X msg 147 130 8;
#X msg 180 131 10;
#X obj 80 82 random 5;
#X obj 81 104 sel 0 1 2 3 4, f 26;
#X msg 222 131 3;
#X obj 36 18 inlet;
#X obj 37 211 outlet;
#X connect 0 0 1 0;
#X connect 0 2 6 0;
#X connect 1 0 10 0;
#X connect 2 0 1 1;
#X connect 3 0 1 1;
#X connect 4 0 1 1;
#X connect 5 0 1 1;
#X connect 6 0 7 0;
#X connect 7 0 2 0;
#X connect 7 1 3 0;
#X connect 7 2 4 0;
#X connect 7 3 5 0;
#X connect 7 4 8 0;
#X connect 8 0 1 1;
#X connect 9 0 0 0;
#X restore 1086 1703 pd harmonize;
#X obj 1087 1889 rev3~ 100 80 5000 60;
#X obj 1086 1793 + 60;
#X floatatom 1241 1528 5 0 0 0 - - -, f 5;
#X obj 328 1377 reson~ 2 40 0.3, f 18;
#X obj 1345 1559 random 160;
#X obj 1345 1582 - 80;
#X obj 1345 1603 + 220;
#X obj 1344 1629 * 10;
#X floatatom 1361 1484 5 0 0 0 - - -, f 5;
#X obj 722 256 +;
#X floatatom 722 284 5 0 0 0 - - -, f 5;
#X obj 1183 696 > 10000;
#X obj 1183 717 change;
#X obj 1134 784 change;
#X obj 1134 805 expr 10 - $f1 * 10;
#X obj 922 985 reson~ 15 40 0.4, f 18;
#X obj 495 467 change;
#X text 209 359 double click \, open and choose preset ->;
#X text 882 1334 Sinusoide pazza;
#X text 237 806 VOCAL SYNTESIS;
#X text 24 51 Puredata version required: Pd 0.47.1 or later, f 27
;
#N canvas 0 50 450 300 limiter 0;
#X obj 27 81 inlet~;
#X floatatom 263 274 5 0 0 0 - - -, f 5;
#X floatatom 546 98 5 0 0 0 - - -, f 5;
#X obj 263 236 expr (($f1 - $f3) / $f2) - $f1 + $f3;
#X floatatom 404 140 5 0 0 0 - - -, f 5;
#X obj 404 81 loadbang;
#X obj 228 137 env~ 1024;
#X floatatom 263 212 5 0 0 0 - - -, f 5;
#X obj 263 359 dbtorms;
#X floatatom 263 393 12 0 0 0 - - -, f 12;
#X floatatom 263 335 5 0 0 0 - - -, f 5;
#X obj 263 308 expr 100 + $f1;
#X obj 27 545 outlet~;
#X obj 27 518 *~;
#X obj 47 491 line~;
#X msg 47 467 \$1 20;
#X floatatom 27 190 5 0 0 0 - - -, f 5;
#X obj 27 142 delwrite~ comp 100;
#X text 97 466 attack: 20 ms;
#X obj 228 188 moses;
#X floatatom 228 163 5 0 0 0 - - -, f 5;
#X msg 228 360 1;
#X obj 228 213 bng 15 250 50 0 empty empty empty 0 -6 0 8 -262144 -1
-1;
#X msg 73 423 \$1 20;
#X text 123 423 release: 20 ms;
#X obj 27 214 delread~ comp;
#X text 27 16 3.9.1.1. Limiter 3;
#X text 25 47 signal to be limited;
#X text 451 131 limit factor;
#X text 549 71 threshold / reference;
#X text 74 189 forward control;
#X text 310 275 value by which the signal must be reduced;
#X text 389 345 conversion;
#X text 367 386 correction factor of the input signal's rms value;
#X text 453 504 www.pd-tutorial.com;
#X text 462 479 Johannes Kreidler;
#X obj 516 21 loadbang;
#X obj 164 66 loadbang;
#X msg 164 91 25;
#X msg 516 46 80;
#X msg 404 106 10;
#X connect 0 0 6 0;
#X connect 0 0 17 0;
#X connect 1 0 11 0;
#X connect 2 0 3 2;
#X connect 2 0 19 1;
#X connect 3 0 1 0;
#X connect 4 0 3 1;
#X connect 5 0 40 0;
#X connect 6 0 20 0;
#X connect 7 0 3 0;
#X connect 8 0 9 0;
#X connect 9 0 15 0;
#X connect 10 0 8 0;
#X connect 11 0 10 0;
#X connect 13 0 12 0;
#X connect 14 0 13 1;
#X connect 15 0 14 0;
#X connect 16 0 25 0;
#X connect 19 0 22 0;
#X connect 19 1 7 0;
#X connect 20 0 19 0;
#X connect 21 0 23 0;
#X connect 22 0 21 0;
#X connect 23 0 14 0;
#X connect 25 0 13 0;
#X connect 36 0 39 0;
#X connect 37 0 38 0;
#X connect 38 0 16 0;
#X connect 39 0 2 0;
#X connect 40 0 4 0;
#X restore 315 1463 pd limiter;
#X obj 921 1092 -~, f 5;
#X obj 1135 741 > 3;
#X obj 329 1341 reson~ 8 2000 1.2, f 18;
#N canvas 48 155 415 300 sinusoide 0;
#X obj 38 28 inlet;
#X obj 38 50 t b f b;
#X obj 148 190 osc~;
#X obj 39 261 outlet~;
#X obj 39 206 *~;
#X obj 38 99 pack 1 200;
#X obj 38 128 line~;
#X obj 38 162 *~;
#X obj 124 74 del 300;
#X obj 124 96 pack 0 5000;
#X obj 215 119 clip 20 140;
#X obj 39 228 *~ 0.3;
#X obj 148 168 mtof~;
#X obj 215 163 line~;
#X msg 215 141 \$1 35;
#X connect 0 0 1 0;
#X connect 1 0 5 0;
#X connect 1 0 8 0;
#X connect 1 1 10 0;
#X connect 2 0 4 1;
#X connect 4 0 11 0;
#X connect 5 0 6 0;
#X connect 6 0 7 0;
#X connect 6 0 7 1;
#X connect 7 0 4 0;
#X connect 8 0 9 0;
#X connect 9 0 6 0;
#X connect 10 0 14 0;
#X connect 11 0 3 0;
#X connect 12 0 2 0;
#X connect 13 0 12 0;
#X connect 14 0 13 0;
#X restore 832 1360 pd sinusoide;
#X obj 831 1418 *~;
#X obj 1047 1295 dbtoa;
#X floatatom 1095 1170 5 0 0 0 - - -, f 5;
#X floatatom 1046 1322 5 0 0 0 - - -, f 5;
#X msg 1046 1341 \$1 20;
#X obj 1046 1363 line~;
#X obj 1094 980 expr ($f1 * 1.5)+ 4;
#X obj 1095 1147 expr $f1*2 - 29;
#X floatatom 1457 1769 5 0 0 0 - - -, f 5;
#X msg 1457 1788 next \$1;
#X obj 1538 1507 tgl 15 0 empty empty empty 17 7 0 10 -262144 -1 -1
0 1;
#X obj 1545 1564 drunk 36 4, f 15;
#X obj 1545 1623 t f f b;
#X obj 1545 1741 +;
#X msg 1587 1702 4;
#X msg 1619 1701 7;
#X msg 1653 1701 8;
#X msg 1686 1702 10;
#X obj 1586 1653 random 5;
#X obj 1587 1675 sel 0 1 2 3 4, f 26;
#X msg 1728 1702 3;
#X obj 1545 1537 metro 2200;
#N canvas 0 50 450 300 harmonize 0;
#X obj 39 52 t f f b;
#X obj 37 189 +;
#X msg 81 131 4;
#X msg 113 130 7;
#X msg 147 130 8;
#X msg 180 131 10;
#X obj 80 82 random 5;
#X obj 81 104 sel 0 1 2 3 4, f 26;
#X msg 222 131 3;
#X obj 36 18 inlet;
#X obj 37 211 outlet;
#X connect 0 0 1 0;
#X connect 0 2 6 0;
#X connect 1 0 10 0;
#X connect 2 0 1 1;
#X connect 3 0 1 1;
#X connect 4 0 1 1;
#X connect 5 0 1 1;
#X connect 6 0 7 0;
#X connect 7 0 2 0;
#X connect 7 1 3 0;
#X connect 7 2 4 0;
#X connect 7 3 5 0;
#X connect 7 4 8 0;
#X connect 8 0 1 1;
#X connect 9 0 0 0;
#X restore 1457 1689 pd harmonize;
#X obj 1457 1842 rev3~ 100 80 5000 60;
#X floatatom 1612 1514 5 0 0 0 - - -, f 5;
#X obj 1716 1545 random 160;
#X obj 1716 1568 - 80;
#X obj 1716 1589 + 220;
#X msg 1902 1005 190 220;
#X msg 1740 1053 0.08 400;
#X msg 1718 1007 100 400;
#X obj 1950 903 * 4000;
#X obj 2030 905 * 4600;
#X obj 1977 1468 * -1;
#X obj 1977 1493 + 1;
#X obj 1715 1615 * 30;
#X obj 1456 1746 + 36;
#X obj 1087 1862 clone PolySynth 18;
#X obj 1913 1666 rect~ 55;
#X obj 1913 1757 lop~ 120;
#X obj 1913 1725 lop~ 120;
#X obj 1690 1203 reson~ 6 400 0.4, f 18;
#X obj 1913 1808 *~, f 12;
#X floatatom 1994 1654 5 0 0 0 - - -, f 5;
#X obj 1994 1700 line~;
#X obj 1913 1786 *~, f 10;
#X text 1575 1461 PAD ARMONICI out;
#X text 1204 1475 PAD ARMONICI in;
#X obj 1527 1437 change;
#X obj 1527 1416 < 12000;
#X msg 1912 1027 1.2 180;
#X obj 1902 972 del 4000;
#X obj 1978 1540 line~;
#X msg 1978 1518 \$1 2000;
#X msg 1994 1678 \$1 5000;
#X obj 1994 1628 dbtoa;
#X floatatom 1994 1567 5 0 0 0 - - -, f 5;
#X obj 1457 1815 clone PolySynth2 8;
#X obj 1913 1692 lop~ 240;
#X obj 1994 1597 scale 0 5 -6 -3;
#X text 1598 1744 mib mi sol lab sib;
#X connect 0 0 128 1;
#X connect 1 0 49 0;
#X connect 2 0 0 0;
#X connect 3 0 10 0;
#X connect 4 0 2 0;
#X connect 4 0 8 0;
#X connect 5 0 200 0;
#X connect 5 0 8 0;
#X connect 6 0 128 0;
#X connect 7 0 128 2;
#X connect 8 0 128 3;
#X connect 9 0 11 0;
#X connect 9 0 8 0;
#X connect 10 0 45 0;
#X connect 11 0 0 0;
#X connect 15 0 16 0;
#X connect 15 0 3 0;
#X connect 17 0 18 0;
#X connect 18 0 19 0;
#X connect 19 0 15 0;
#X connect 19 0 106 0;
#X connect 20 0 87 0;
#X connect 21 0 26 0;
#X connect 22 0 109 0;
#X connect 23 0 22 0;
#X connect 24 0 167 1;
#X connect 25 0 110 0;
#X connect 26 0 22 1;
#X connect 27 0 114 0;
#X connect 28 0 114 0;
#X connect 29 0 114 0;
#X connect 30 0 114 0;
#X connect 31 0 114 0;
#X connect 32 0 114 0;
#X connect 35 0 36 0;
#X connect 36 0 34 0;
#X connect 39 0 40 0;
#X connect 40 0 38 0;
#X connect 41 0 118 0;
#X connect 42 0 43 0;
#X connect 42 0 46 0;
#X connect 43 0 44 0;
#X connect 43 0 202 0;
#X connect 43 0 203 0;
#X connect 44 0 1 1;
#X connect 45 0 201 0;
#X connect 45 0 1 0;
#X connect 45 0 41 0;
#X connect 45 0 222 0;
#X connect 45 2 116 0;
#X connect 46 0 10 1;
#X connect 47 0 48 0;
#X connect 47 0 116 1;
#X connect 48 0 117 1;
#X connect 49 0 4 0;
#X connect 49 0 7 0;
#X connect 52 0 53 0;
#X connect 53 0 27 0;
#X connect 54 0 55 0;
#X connect 55 0 28 0;
#X connect 56 0 57 0;
#X connect 57 0 29 0;
#X connect 58 0 59 0;
#X connect 59 0 30 0;
#X connect 60 0 61 0;
#X connect 61 0 31 0;
#X connect 62 0 63 0;
#X connect 63 0 32 0;
#X connect 64 0 78 0;
#X connect 65 0 71 0;
#X connect 65 1 72 0;
#X connect 65 1 73 0;
#X connect 65 1 74 0;
#X connect 65 1 75 0;
#X connect 65 1 76 0;
#X connect 66 0 72 0;
#X connect 66 1 71 0;
#X connect 66 1 73 0;
#X connect 66 1 74 0;
#X connect 66 1 75 0;
#X connect 66 1 76 0;
#X connect 67 0 73 0;
#X connect 67 1 71 0;
#X connect 67 1 72 0;
#X connect 67 1 74 0;
#X connect 67 1 75 0;
#X connect 67 1 76 0;
#X connect 68 0 74 0;
#X connect 68 1 71 0;
#X connect 68 1 72 0;
#X connect 68 1 73 0;
#X connect 68 1 75 0;
#X connect 68 1 76 0;
#X connect 69 0 75 0;
#X connect 69 1 71 0;
#X connect 69 1 72 0;
#X connect 69 1 73 0;
#X connect 69 1 74 0;
#X connect 69 1 76 0;
#X connect 70 0 76 0;
#X connect 70 1 71 0;
#X connect 70 1 72 0;
#X connect 70 1 73 0;
#X connect 70 1 74 0;
#X connect 70 1 75 0;
#X connect 71 0 52 0;
#X connect 72 0 54 0;
#X connect 73 0 56 0;
#X connect 74 0 58 0;
#X connect 75 0 60 0;
#X connect 76 0 62 0;
#X connect 77 0 76 1;
#X connect 77 0 75 1;
#X connect 77 0 74 1;
#X connect 77 0 73 1;
#X connect 77 0 71 1;
#X connect 77 0 72 1;
#X connect 78 0 79 0;
#X connect 78 1 65 0;
#X connect 78 2 66 0;
#X connect 78 3 67 0;
#X connect 78 4 68 0;
#X connect 78 5 69 0;
#X connect 78 6 70 0;
#X connect 79 0 71 0;
#X connect 79 0 72 0;
#X connect 79 0 73 0;
#X connect 79 0 74 0;
#X connect 79 0 75 0;
#X connect 79 0 76 0;
#X connect 80 0 83 0;
#X connect 80 0 124 0;
#X connect 81 0 20 0;
#X connect 81 0 125 0;
#X connect 82 0 100 0;
#X connect 82 0 161 0;
#X connect 83 0 85 0;
#X connect 84 0 80 1;
#X connect 85 0 64 0;
#X connect 86 0 124 2;
#X connect 87 0 23 0;
#X connect 88 0 87 1;
#X connect 89 0 81 0;
#X connect 99 0 82 0;
#X connect 99 1 105 1;
#X connect 99 2 86 0;
#X connect 99 3 77 0;
#X connect 99 4 88 0;
#X connect 100 1 64 0;
#X connect 105 0 84 0;
#X connect 106 0 107 0;
#X connect 106 1 121 0;
#X connect 106 2 120 0;
#X connect 107 0 108 0;
#X connect 108 0 99 0;
#X connect 108 0 168 0;
#X connect 108 0 177 0;
#X connect 108 0 227 0;
#X connect 109 0 160 0;
#X connect 110 0 24 0;
#X connect 111 0 112 0;
#X connect 112 0 113 0;
#X connect 113 0 114 1;
#X connect 114 0 169 0;
#X connect 115 0 111 0;
#X connect 116 0 117 0;
#X connect 117 0 42 0;
#X connect 118 0 9 0;
#X connect 118 0 7 0;
#X connect 119 0 89 0;
#X connect 120 0 154 1;
#X connect 121 0 154 0;
#X connect 122 0 111 0;
#X connect 122 0 178 0;
#X connect 123 0 105 0;
#X connect 124 0 119 0;
#X connect 125 0 170 0;
#X connect 126 0 35 0;
#X connect 126 0 33 0;
#X connect 127 0 39 0;
#X connect 127 0 33 1;
#X connect 128 0 212 0;
#X connect 129 0 0 0;
#X connect 130 0 131 0;
#X connect 131 0 208 0;
#X connect 132 0 143 0;
#X connect 133 0 134 0;
#X connect 134 0 135 0;
#X connect 134 1 144 0;
#X connect 134 1 146 0;
#X connect 134 2 140 0;
#X connect 135 0 146 0;
#X connect 136 0 135 1;
#X connect 137 0 135 1;
#X connect 138 0 135 1;
#X connect 139 0 135 1;
#X connect 140 0 141 0;
#X connect 141 0 136 0;
#X connect 141 1 137 0;
#X connect 141 2 138 0;
#X connect 141 3 139 0;
#X connect 141 4 142 0;
#X connect 142 0 135 1;
#X connect 143 0 133 0;
#X connect 143 0 149 0;
#X connect 144 0 146 0;
#X connect 145 0 126 0;
#X connect 146 0 130 0;
#X connect 147 0 143 1;
#X connect 148 0 166 0;
#X connect 149 0 150 0;
#X connect 150 0 151 0;
#X connect 151 0 152 0;
#X connect 152 0 147 0;
#X connect 153 0 152 1;
#X connect 154 0 155 0;
#X connect 155 0 156 0;
#X connect 155 0 123 0;
#X connect 155 0 220 0;
#X connect 156 0 157 0;
#X connect 157 0 132 0;
#X connect 158 0 159 0;
#X connect 159 0 153 0;
#X connect 160 0 167 0;
#X connect 161 0 80 0;
#X connect 166 0 126 0;
#X connect 167 0 53 1;
#X connect 167 0 55 1;
#X connect 167 0 57 1;
#X connect 167 0 59 1;
#X connect 167 0 61 1;
#X connect 167 0 63 1;
#X connect 168 0 158 0;
#X connect 169 0 148 0;
#X connect 170 0 171 0;
#X connect 171 0 126 0;
#X connect 172 0 174 0;
#X connect 173 0 172 0;
#X connect 174 0 175 0;
#X connect 175 0 176 0;
#X connect 176 0 171 1;
#X connect 177 0 122 0;
#X connect 178 0 173 0;
#X connect 179 0 180 0;
#X connect 180 0 228 0;
#X connect 181 0 192 0;
#X connect 182 0 183 0;
#X connect 183 0 184 0;
#X connect 183 1 193 0;
#X connect 183 1 207 0;
#X connect 183 2 189 0;
#X connect 184 0 207 0;
#X connect 185 0 184 1;
#X connect 186 0 184 1;
#X connect 187 0 184 1;
#X connect 188 0 184 1;
#X connect 189 0 190 0;
#X connect 190 0 185 0;
#X connect 190 1 186 0;
#X connect 190 2 187 0;
#X connect 190 3 188 0;
#X connect 190 4 191 0;
#X connect 191 0 184 1;
#X connect 192 0 182 0;
#X connect 192 0 196 0;
#X connect 193 0 207 0;
#X connect 194 0 127 0;
#X connect 195 0 192 1;
#X connect 196 0 197 0;
#X connect 197 0 198 0;
#X connect 198 0 206 0;
#X connect 199 0 7 0;
#X connect 199 0 221 0;
#X connect 200 0 0 0;
#X connect 201 0 5 0;
#X connect 201 0 7 0;
#X connect 202 0 222 1;
#X connect 203 0 41 1;
#X connect 204 0 205 0;
#X connect 205 0 224 0;
#X connect 206 0 195 0;
#X connect 207 0 179 0;
#X connect 208 0 145 0;
#X connect 208 1 145 1;
#X connect 209 0 229 0;
#X connect 210 0 216 0;
#X connect 211 0 210 0;
#X connect 212 0 126 0;
#X connect 213 0 127 0;
#X connect 214 0 225 0;
#X connect 215 0 213 1;
#X connect 216 0 213 0;
#X connect 219 0 181 0;
#X connect 219 0 204 0;
#X connect 220 0 219 0;
#X connect 221 0 8 0;
#X connect 221 0 129 0;
#X connect 222 0 199 0;
#X connect 223 0 216 1;
#X connect 224 0 223 0;
#X connect 225 0 215 0;
#X connect 226 0 214 0;
#X connect 227 0 230 0;
#X connect 228 0 194 0;
#X connect 229 0 211 0;
#X connect 230 0 226 0;
#X coords 0 0 100 1 0 0 0;
