#N canvas 4 23 1434 856 10;
#X declare -stdpath cyclone;
#X declare -stdpath iemlib;
#X declare -stdpath comport;
#X obj 1327 1225 line~;
#X obj 1397 1067 del 1000;
#X msg 1419 1146 0.01 2000;
#X obj 1300 692 tgl 15 0 empty empty empty 17 7 0 10 -262144 -1 -1
1 1;
#X msg 1408 1122 1 100;
#X msg 1317 1123 0.8 100;
#X obj 1277 1225 pink~;
#X obj 1374 1225 line~;
#X obj 1418 1224 line~;
#X msg 1579 1120 0.5 120;
#X obj 1299 728 metro 6000;
#X msg 1591 1144 0.01 130;
#X obj 26 134 declare -stdpath cyclone;
#X obj 26 158 declare -stdpath iemlib;
#X obj 25 180 declare -stdpath comport;
#X obj 1042 94 tgl 15 0 empty empty empty 17 7 0 10 -262144 -1 -1 1
1;
#X msg 1042 128 \; pd dsp \$1;
#X obj 1042 22 loadbang;
#X obj 1042 44 bng 15 250 50 0 empty empty empty 17 7 0 10 -262144
-1 -1;
#X obj 1042 64 delay 5000;
#X floatatom 922 754 5 0 0 0 - - -, f 5;
#X obj 975 865 rand~ 10;
#X obj 922 925 +~, f 8;
#X obj 922 895 line~;
#X obj 953 1061 *~ 0.2;
#X obj 953 1014 rand~ 20;
#X obj 975 894 *~ 1.2;
#N canvas 323 279 450 300 formant3_M_heed 0;
#X obj 38 29 inlet~;
#X obj 38 210 outlet~;
#X obj 296 134 reson~ 1 3010 100;
#X obj 168 135 reson~ 1 2290 100;
#X obj 38 136 reson~ 1 270 100;
#X connect 0 0 2 0;
#X connect 0 0 3 0;
#X connect 0 0 4 0;
#X connect 2 0 1 0;
#X connect 3 0 1 0;
#X connect 4 0 1 0;
#X restore 54 1150 pd formant3_M_heed;
#N canvas 0 50 450 300 formant3_M_head 0;
#X obj 38 29 inlet~;
#X obj 38 210 outlet~;
#X obj 38 136 reson~ 1 530 100;
#X obj 168 135 reson~ 1 1840 100;
#X obj 296 134 reson~ 1 2480 100;
#X connect 0 0 2 0;
#X connect 0 0 3 0;
#X connect 0 0 4 0;
#X connect 2 0 1 0;
#X connect 3 0 1 0;
#X connect 4 0 1 0;
#X restore 188 1150 pd formant3_M_head;
#N canvas 0 50 450 300 formant3_M_had 0;
#X obj 38 29 inlet~;
#X obj 38 210 outlet~;
#X obj 38 136 reson~ 1 660 100;
#X obj 168 135 reson~ 1 1720 100;
#X obj 296 134 reson~ 1 2410 100;
#X connect 0 0 2 0;
#X connect 0 0 3 0;
#X connect 0 0 4 0;
#X connect 2 0 1 0;
#X connect 3 0 1 0;
#X connect 4 0 1 0;
#X restore 329 1148 pd formant3_M_had;
#N canvas 0 50 450 300 formant3_M_hod 0;
#X obj 38 29 inlet~;
#X obj 38 210 outlet~;
#X obj 38 136 reson~ 1 730 100;
#X obj 168 135 reson~ 1 1090 100;
#X obj 296 134 reson~ 1 2440 100;
#X connect 0 0 2 0;
#X connect 0 0 3 0;
#X connect 0 0 4 0;
#X connect 2 0 1 0;
#X connect 3 0 1 0;
#X connect 4 0 1 0;
#X restore 458 1148 pd formant3_M_hod;
#N canvas 0 50 450 300 formant3_M_haw'd 0;
#X obj 38 29 inlet~;
#X obj 38 210 outlet~;
#X obj 38 136 reson~ 1 570 100;
#X obj 168 135 reson~ 1 840 100;
#X obj 296 134 reson~ 1 2410 100;
#X connect 0 0 2 0;
#X connect 0 0 3 0;
#X connect 0 0 4 0;
#X connect 2 0 1 0;
#X connect 3 0 1 0;
#X connect 4 0 1 0;
#X restore 601 1147 pd formant3_M_haw'd;
#N canvas 2 101 450 300 formant3_M_who'd 0;
#X obj 38 29 inlet~;
#X obj 38 210 outlet~;
#X obj 296 134 reson~ 1 2240 120;
#X obj 168 135 reson~ 1 870 110;
#X obj 38 136 reson~ 1 300 90;
#X connect 0 0 2 0;
#X connect 0 0 3 0;
#X connect 0 0 4 0;
#X connect 2 0 1 0;
#X connect 3 0 1 0;
#X connect 4 0 1 0;
#X restore 755 1148 pd formant3_M_who'd;
#X obj 745 1724 dac~ 1 2;
#X obj 704 1770 vu 15 120 empty empty -1 -8 0 10 -66577 -1 1 0;
#X obj 703 1724 env~;
#X obj 703 1746 - 100;
#X msg 1500 1121 1.2 100;
#X obj 454 2029 bng 15 250 50 0 empty empty empty 17 7 0 10 -262144
-1 -1;
#X obj 815 1772 vu 15 120 empty empty -1 -8 0 10 -66577 -1 1 0;
#X obj 814 1726 env~;
#X obj 814 1748 - 100;
#X obj 1490 1066 del 4200;
#X obj 1570 1068 del 4960;
#X obj 1464 834 + 6000;
#X obj 1463 859 / 6000;
#X obj 1442 994 * 1000;
#X obj 1299 764 t b b b, f 24;
#X obj 1538 997 * 4200;
#X obj 1618 999 * 4900;
#X floatatom 1365 704 5 0 0 0 - - -, f 5;
#X floatatom 1555 708 5 0 0 0 - - -, f 5;
#X obj 1556 789 / 2;
#X msg 1398 1100 25 2000;
#X text 75 111 LIBRARIES NEEDED!;
#X text 884 755 FREQ;
#X obj 53 1076 line~;
#X obj 54 1116 *~, f 8;
#X obj 187 1076 line~;
#X obj 188 1116 *~, f 8;
#X obj 327 1071 line~;
#X obj 328 1111 *~, f 8;
#X obj 457 1077 line~;
#X obj 458 1117 *~, f 8;
#X obj 602 1076 line~;
#X obj 603 1116 *~, f 8;
#X obj 754 1076 line~;
#X obj 755 1116 *~, f 8;
#X obj 17 809 hradio 25 1 0 7 empty empty empty 0 -8 0 10 -262144 -1
-1 0;
#N canvas 0 50 450 300 onoff 0;
#X obj 34 29 inlet;
#X msg 88 69 0;
#X msg 34 70 1;
#X obj 34 92 outlet;
#X obj 88 91 outlet;
#X connect 0 0 2 0;
#X connect 0 0 1 0;
#X connect 1 0 4 0;
#X connect 2 0 3 0;
#X restore 53 915 pd onoff;
#N canvas 0 50 450 300 onoff 0;
#X obj 34 29 inlet;
#X msg 88 69 0;
#X msg 34 70 1;
#X obj 34 92 outlet;
#X obj 88 91 outlet;
#X connect 0 0 2 0;
#X connect 0 0 1 0;
#X connect 1 0 4 0;
#X connect 2 0 3 0;
#X restore 180 915 pd onoff;
#N canvas 0 50 450 300 onoff 0;
#X obj 34 29 inlet;
#X msg 88 69 0;
#X msg 34 70 1;
#X obj 34 92 outlet;
#X obj 88 91 outlet;
#X connect 0 0 2 0;
#X connect 0 0 1 0;
#X connect 1 0 4 0;
#X connect 2 0 3 0;
#X restore 319 914 pd onoff;
#N canvas 0 50 450 300 onoff 0;
#X obj 34 29 inlet;
#X msg 88 69 0;
#X msg 34 70 1;
#X obj 34 92 outlet;
#X obj 88 91 outlet;
#X connect 0 0 2 0;
#X connect 0 0 1 0;
#X connect 1 0 4 0;
#X connect 2 0 3 0;
#X restore 447 917 pd onoff;
#N canvas 0 50 450 300 onoff 0;
#X obj 34 29 inlet;
#X msg 88 69 0;
#X msg 34 70 1;
#X obj 34 92 outlet;
#X obj 88 91 outlet;
#X connect 0 0 2 0;
#X connect 0 0 1 0;
#X connect 1 0 4 0;
#X connect 2 0 3 0;
#X restore 583 914 pd onoff;
#N canvas 0 50 450 300 onoff 0;
#X obj 34 29 inlet;
#X msg 88 69 0;
#X msg 34 70 1;
#X obj 34 92 outlet;
#X obj 88 91 outlet;
#X connect 0 0 2 0;
#X connect 0 0 1 0;
#X connect 1 0 4 0;
#X connect 2 0 3 0;
#X restore 721 919 pd onoff;
#X obj 54 1035 pack f 40;
#X obj 188 1037 pack f 40;
#X obj 326 1036 pack f 40;
#X obj 453 1039 pack f 40;
#X obj 598 1039 pack f 40;
#X obj 753 1039 pack f 40;
#X floatatom 813 685 5 0 0 0 - - -, f 5;
#X obj 17 839 sel 0 1 2 3 4 5 6, f 115;
#X msg 15 916 0;
#X obj 492 609 metro 1000;
#X obj 492 722 mtof;
#X obj 495 447 tgl 15 0 empty empty empty 17 7 0 10 -262144 -1 -1 0
1;
#X obj 17 680 random 7;
#X floatatom 559 564 5 0 0 0 - - -, f 5;
#X floatatom 17 702 5 0 0 0 - - -, f 5;
#X floatatom 594 628 5 0 0 0 - - -, f 5;
#X obj 922 831 pack f 20, f 11;
#X floatatom 992 684 5 0 0 0 - - -, f 5;
#X floatatom 492 703 5 0 0 0 - - -, f 5;
#X text 536 696 SCELTA NOTA MIDI => FREQ "CANTATA";
#X text 634 628 MAX INTERVALLO (MIDI);
#X text 1003 722 VELOCITà GLISSANDO (ms), f 14;
#X text 1339 666 FAKE RESPIRO;
#X text 598 563 VELOCITà METRONOMO CAMBIO PARAMENTRI (ms);
#X text 373 449 ON/OFF METRONOMO;
#X text 82 680 SCELTA BANCO DI FILTRI PER FORMANTI == SCELTA VOCALE
;
#X text 643 54 ATMOSFACE MAIN PATCH;
#X text 1068 91 ON/OFF AUDIO (si accende da solo XD), f 26;
#N canvas 375 188 666 501 preset 0;
#X obj 184 454 unpack f f f f f, f 29;
#X obj 184 488 outlet;
#X obj 234 488 outlet;
#X obj 284 488 outlet;
#X obj 334 488 outlet;
#X obj 384 487 outlet;
#X obj 23 24 inlet;
#X msg 165 195 1 200 6 80 100;
#X msg 260 114 1 22 10 10 40;
#X msg 192 167 1 100 9 60 40, f 16;
#X msg 220 141 1 70 3 20 40;
#X msg 23 350 0 200 3 200 40;
#X msg 77 284 1 400 1 1200 100;
#X msg 108 250 1 600 1 2000 100;
#X msg 136 223 1 500 2 800 300;
#X obj 23 64 sel 0 1 2 3 4, f 39;
#X connect 0 0 1 0;
#X connect 0 1 2 0;
#X connect 0 2 3 0;
#X connect 0 3 4 0;
#X connect 0 4 5 0;
#X connect 6 0 15 0;
#X connect 7 0 0 0;
#X connect 8 0 0 0;
#X connect 9 0 0 0;
#X connect 10 0 0 0;
#X connect 11 0 0 0;
#X connect 12 0 0 0;
#X connect 13 0 0 0;
#X connect 14 0 0 0;
#X connect 15 0 11 0;
#X connect 15 1 13 0;
#X connect 15 2 14 0;
#X connect 15 3 9 0;
#X connect 15 4 10 0;
#X restore 496 359 pd preset;
#X obj 414 607 sel 1;
#X text 852 661 VELOCITà FADE TRA VOCALI (ms);
#X text 670 177 proximity 1;
#X text 804 178 proximity 2;
#X text 503 177 array touch;
#X obj 559 504 +;
#X obj 497 155 decoder, f 43;
#N canvas 4 101 469 382 sum 0;
#X obj 30 24 inlet;
#X obj 30 46 unpack f f f f f f f f f f;
#X obj 33 269 +;
#X obj 189 70 +;
#X obj 171 93 +;
#X obj 151 119 +;
#X obj 132 144 +;
#X obj 116 169 +;
#X obj 97 195 +;
#X obj 79 218 +;
#X obj 59 240 +;
#X obj 318 27 inlet;
#X obj 33 315 outlet;
#X obj 33 293 +, f 41;
#X connect 0 0 1 0;
#X connect 1 0 2 0;
#X connect 1 1 10 0;
#X connect 1 2 9 0;
#X connect 1 3 8 0;
#X connect 1 4 7 0;
#X connect 1 5 6 0;
#X connect 1 6 5 0;
#X connect 1 7 4 0;
#X connect 1 8 3 0;
#X connect 1 9 3 1;
#X connect 2 0 13 0;
#X connect 3 0 4 1;
#X connect 4 0 5 1;
#X connect 5 0 6 1;
#X connect 6 0 7 1;
#X connect 7 0 8 1;
#X connect 8 0 9 1;
#X connect 9 0 10 1;
#X connect 10 0 2 1;
#X connect 11 0 13 1;
#X connect 13 0 12 0;
#X restore 497 238 pd sum;
#X floatatom 497 295 5 0 0 0 - - -, f 5;
#X obj 922 955 phasor~ 440;
#X msg 1306 1101 100 900;
#X msg 1328 1147 0.08 900;
#X obj 953 1039 +~ 1.6;
#X floatatom 985 1172 5 0 0 0 - - -, f 5;
#X msg 985 1191 \$1 20;
#X obj 985 1213 line~;
#X obj 329 1306 *~;
#X obj 985 1143 loadmess 8;
#X obj 1278 1297 reson~ 3 400 0.4, f 18;
#X obj 1464 789 random 1200;
#X obj 1464 812 - 400;
#X msg 1490 1099 190 420;
#X msg 1570 1098 50 150;
#X obj 492 681 + 21;
#X floatatom 756 208 5 0 0 0 - - -, f 5;
#X floatatom 668 205 5 0 0 0 - - -, f 5;
#X floatatom 1094 1029 5 0 0 0 - - -, f 5;
#X obj 1094 1007 + 3;
#X obj 661 348 / 6553.5;
#X obj 329 1341 reson~ 5 2000 1.2, f 18;
#X obj 492 653 drunk 36 4, f 15;
#X floatatom 832 1356 5 0 0 0 - - -, f 5;
#X obj 742 1695 +~;
#X obj 802 1685 +~;
#X obj 1277 1268 reson~ 12 400 0.1;
#X msg 1511 1145 0.04 380;
#X floatatom 1086 1783 5 0 0 0 - - -, f 5;
#X msg 1086 1802 next \$1;
#X obj 1167 1521 tgl 15 0 empty empty empty 17 7 0 10 -262144 -1 -1
1 1;
#X obj 1174 1578 drunk 36 4, f 15;
#X obj 1174 1637 t f f b;
#X obj 1174 1755 +;
#X msg 1216 1716 4;
#X msg 1248 1715 7;
#X msg 1282 1715 8;
#X msg 1315 1716 10;
#X obj 1215 1667 random 5;
#X obj 1216 1689 sel 0 1 2 3 4, f 26;
#X msg 1357 1716 3;
#X obj 1174 1551 metro 2200;
#N canvas 0 23 450 300 harmonize 0;
#X obj 39 52 t f f b;
#X obj 37 189 +;
#X msg 81 131 4;
#X msg 113 130 7;
#X msg 147 130 8;
#X msg 180 131 10;
#X obj 80 82 random 5;
#X obj 81 104 sel 0 1 2 3 4, f 26;
#X msg 222 131 3;
#X obj 36 18 inlet;
#X obj 37 211 outlet;
#X connect 0 0 1 0;
#X connect 0 2 6 0;
#X connect 1 0 10 0;
#X connect 2 0 1 1;
#X connect 3 0 1 1;
#X connect 4 0 1 1;
#X connect 5 0 1 1;
#X connect 6 0 7 0;
#X connect 7 0 2 0;
#X connect 7 1 3 0;
#X connect 7 2 4 0;
#X connect 7 3 5 0;
#X connect 7 4 8 0;
#X connect 8 0 1 1;
#X connect 9 0 0 0;
#X restore 1086 1703 pd harmonize;
#X obj 1124 1866 rev3~ 100 80 5000 60;
#X obj 1086 1829 clone PolySynth 28;
#X obj 1085 1760 + 60;
#X floatatom 1241 1528 5 0 0 0 - - -, f 5;
#X obj 328 1377 reson~ 2 40 0.3, f 18;
#X obj 1345 1559 random 160;
#X obj 1345 1582 - 80;
#X obj 1345 1603 + 220;
#X obj 1344 1629 * 10;
#X floatatom 1361 1484 5 0 0 0 - - -, f 5;
#X obj 722 256 +;
#X floatatom 725 277 5 0 0 0 - - -, f 5;
#X obj 1183 696 > 10000;
#X obj 1183 717 change;
#X obj 1134 784 change;
#X obj 1134 805 expr 10 - $f1 * 10;
#X obj 921 1092 *~, f 5;
#X obj 922 985 reson~ 15 40 0.4, f 18;
#X obj 495 467 change;
#X obj 1135 741 > 2;
#X text 209 359 double click \, open and choose preset ->;
#X text 1204 1475 PAD ARMONICI;
#N canvas 50 143 415 300 sinusoide 0;
#X obj 38 28 inlet;
#X obj 38 50 t b f b;
#X obj 108 133 mtof;
#X obj 108 155 osc~;
#X obj 39 261 outlet~;
#X obj 39 206 *~;
#X obj 38 99 pack 1 200;
#X obj 38 128 line~;
#X obj 38 162 *~;
#X obj 124 74 del 300;
#X obj 124 96 pack 0 5000;
#X obj 39 228 *~ 0.5;
#X connect 0 0 1 0;
#X connect 1 0 6 0;
#X connect 1 0 9 0;
#X connect 1 1 2 0;
#X connect 2 0 3 0;
#X connect 3 0 5 1;
#X connect 5 0 11 0;
#X connect 6 0 7 0;
#X connect 7 0 8 0;
#X connect 7 0 8 1;
#X connect 8 0 5 0;
#X connect 9 0 10 0;
#X connect 10 0 7 0;
#X connect 11 0 4 0;
#X restore 832 1381 pd sinusoide;
#X text 882 1354 Sinusoide pazza;
#X text 237 806 VOCAL SYNTESIS;
#X text 24 51 Puredata version required: Pd 0.47.1 or later, f 27
;
#X connect 0 0 138 1;
#X connect 1 0 53 0;
#X connect 2 0 0 0;
#X connect 3 0 10 0;
#X connect 4 0 2 0;
#X connect 4 0 8 0;
#X connect 5 0 115 0;
#X connect 5 0 8 0;
#X connect 6 0 138 0;
#X connect 7 0 138 2;
#X connect 8 0 138 3;
#X connect 9 0 11 0;
#X connect 9 0 8 0;
#X connect 10 0 47 0;
#X connect 11 0 0 0;
#X connect 15 0 16 0;
#X connect 15 0 3 0;
#X connect 17 0 18 0;
#X connect 18 0 19 0;
#X connect 19 0 15 0;
#X connect 19 0 110 0;
#X connect 20 0 91 0;
#X connect 21 0 26 0;
#X connect 22 0 113 0;
#X connect 23 0 22 0;
#X connect 24 0 171 1;
#X connect 25 0 116 0;
#X connect 26 0 22 1;
#X connect 27 0 120 0;
#X connect 28 0 120 0;
#X connect 29 0 120 0;
#X connect 30 0 120 0;
#X connect 31 0 120 0;
#X connect 32 0 120 0;
#X connect 35 0 36 0;
#X connect 36 0 34 0;
#X connect 37 0 8 0;
#X connect 37 0 139 0;
#X connect 40 0 41 0;
#X connect 41 0 39 0;
#X connect 42 0 125 0;
#X connect 43 0 126 0;
#X connect 44 0 45 0;
#X connect 44 0 50 0;
#X connect 45 0 46 0;
#X connect 45 0 48 0;
#X connect 45 0 49 0;
#X connect 46 0 1 1;
#X connect 47 0 114 0;
#X connect 47 0 1 0;
#X connect 47 0 42 0;
#X connect 47 0 43 0;
#X connect 47 2 123 0;
#X connect 48 0 42 1;
#X connect 49 0 43 1;
#X connect 50 0 10 1;
#X connect 51 0 52 0;
#X connect 51 0 123 1;
#X connect 52 0 124 1;
#X connect 53 0 4 0;
#X connect 53 0 7 0;
#X connect 56 0 57 0;
#X connect 57 0 27 0;
#X connect 58 0 59 0;
#X connect 59 0 28 0;
#X connect 60 0 61 0;
#X connect 61 0 29 0;
#X connect 62 0 63 0;
#X connect 63 0 30 0;
#X connect 64 0 65 0;
#X connect 65 0 31 0;
#X connect 66 0 67 0;
#X connect 67 0 32 0;
#X connect 68 0 82 0;
#X connect 69 0 75 0;
#X connect 69 1 76 0;
#X connect 69 1 77 0;
#X connect 69 1 78 0;
#X connect 69 1 79 0;
#X connect 69 1 80 0;
#X connect 70 0 76 0;
#X connect 70 1 75 0;
#X connect 70 1 77 0;
#X connect 70 1 78 0;
#X connect 70 1 79 0;
#X connect 70 1 80 0;
#X connect 71 0 77 0;
#X connect 71 1 75 0;
#X connect 71 1 76 0;
#X connect 71 1 78 0;
#X connect 71 1 79 0;
#X connect 71 1 80 0;
#X connect 72 0 78 0;
#X connect 72 1 75 0;
#X connect 72 1 76 0;
#X connect 72 1 77 0;
#X connect 72 1 79 0;
#X connect 72 1 80 0;
#X connect 73 0 79 0;
#X connect 73 1 75 0;
#X connect 73 1 76 0;
#X connect 73 1 77 0;
#X connect 73 1 78 0;
#X connect 73 1 80 0;
#X connect 74 0 80 0;
#X connect 74 1 75 0;
#X connect 74 1 76 0;
#X connect 74 1 77 0;
#X connect 74 1 78 0;
#X connect 74 1 79 0;
#X connect 75 0 56 0;
#X connect 76 0 58 0;
#X connect 77 0 60 0;
#X connect 78 0 62 0;
#X connect 79 0 64 0;
#X connect 80 0 66 0;
#X connect 81 0 80 1;
#X connect 81 0 79 1;
#X connect 81 0 78 1;
#X connect 81 0 77 1;
#X connect 81 0 75 1;
#X connect 81 0 76 1;
#X connect 82 0 83 0;
#X connect 82 1 69 0;
#X connect 82 2 70 0;
#X connect 82 3 71 0;
#X connect 82 4 72 0;
#X connect 82 5 73 0;
#X connect 82 6 74 0;
#X connect 83 0 75 0;
#X connect 83 0 76 0;
#X connect 83 0 77 0;
#X connect 83 0 78 0;
#X connect 83 0 79 0;
#X connect 83 0 80 0;
#X connect 84 0 87 0;
#X connect 84 0 134 0;
#X connect 85 0 20 0;
#X connect 85 0 135 0;
#X connect 86 0 104 0;
#X connect 86 0 173 0;
#X connect 87 0 89 0;
#X connect 88 0 84 1;
#X connect 89 0 68 0;
#X connect 90 0 134 2;
#X connect 91 0 23 0;
#X connect 92 0 91 1;
#X connect 93 0 85 0;
#X connect 103 0 86 0;
#X connect 103 1 109 1;
#X connect 103 2 90 0;
#X connect 103 3 81 0;
#X connect 103 4 92 0;
#X connect 104 1 68 0;
#X connect 109 0 88 0;
#X connect 110 0 111 0;
#X connect 110 1 129 0;
#X connect 110 2 128 0;
#X connect 111 0 112 0;
#X connect 112 0 131 0;
#X connect 112 0 103 0;
#X connect 112 0 174 0;
#X connect 113 0 172 0;
#X connect 114 0 5 0;
#X connect 114 0 7 0;
#X connect 115 0 0 0;
#X connect 116 0 24 0;
#X connect 117 0 118 0;
#X connect 118 0 119 0;
#X connect 119 0 120 1;
#X connect 120 0 133 0;
#X connect 121 0 117 0;
#X connect 122 0 137 0;
#X connect 122 0 136 0;
#X connect 123 0 124 0;
#X connect 124 0 44 0;
#X connect 125 0 7 0;
#X connect 125 0 37 0;
#X connect 126 0 9 0;
#X connect 126 0 7 0;
#X connect 127 0 93 0;
#X connect 128 0 165 1;
#X connect 129 0 165 0;
#X connect 130 0 117 0;
#X connect 131 0 130 0;
#X connect 132 0 109 0;
#X connect 133 0 159 0;
#X connect 134 0 127 0;
#X connect 135 0 177 0;
#X connect 136 0 35 0;
#X connect 136 0 33 0;
#X connect 137 0 33 1;
#X connect 137 0 40 0;
#X connect 138 0 122 0;
#X connect 139 0 0 0;
#X connect 140 0 141 0;
#X connect 141 0 156 0;
#X connect 142 0 153 0;
#X connect 143 0 144 0;
#X connect 144 0 145 0;
#X connect 144 1 154 0;
#X connect 144 1 157 0;
#X connect 144 2 150 0;
#X connect 145 0 157 0;
#X connect 146 0 145 1;
#X connect 147 0 145 1;
#X connect 148 0 145 1;
#X connect 149 0 145 1;
#X connect 150 0 151 0;
#X connect 151 0 146 0;
#X connect 151 1 147 0;
#X connect 151 2 148 0;
#X connect 151 3 149 0;
#X connect 151 4 152 0;
#X connect 152 0 145 1;
#X connect 153 0 143 0;
#X connect 153 0 160 0;
#X connect 154 0 157 0;
#X connect 155 0 136 0;
#X connect 155 1 137 0;
#X connect 156 0 155 0;
#X connect 156 1 155 1;
#X connect 157 0 140 0;
#X connect 158 0 153 1;
#X connect 159 0 136 0;
#X connect 159 0 137 0;
#X connect 160 0 161 0;
#X connect 161 0 162 0;
#X connect 162 0 163 0;
#X connect 163 0 158 0;
#X connect 164 0 163 1;
#X connect 165 0 166 0;
#X connect 166 0 167 0;
#X connect 166 0 132 0;
#X connect 167 0 168 0;
#X connect 168 0 142 0;
#X connect 169 0 170 0;
#X connect 170 0 164 0;
#X connect 171 0 57 1;
#X connect 171 0 59 1;
#X connect 171 0 61 1;
#X connect 171 0 63 1;
#X connect 171 0 65 1;
#X connect 171 0 67 1;
#X connect 172 0 171 0;
#X connect 173 0 84 0;
#X connect 174 0 169 0;
#X connect 177 0 136 0;
#X connect 177 0 137 0;
#X coords 0 0 100 1 0 0 0;
