#N canvas 4 22 1436 856 10;
#X declare -stdpath cyclone;
#X declare -stdpath iemlib;
#X declare -stdpath comport;
#X obj 1327 1225 line~;
#X obj 1397 1067 del 1000;
#X msg 1419 1146 0.01 2000;
#X obj 1300 692 tgl 15 0 empty empty empty 17 7 0 10 -262144 -1 -1
1 1;
#X msg 1408 1122 1 100;
#X msg 1317 1123 0.8 100;
#X msg 1306 1101 100 1000;
#X obj 1277 1225 pink~;
#X obj 1374 1225 line~;
#X obj 1418 1224 line~;
#X msg 1570 1098 50 120;
#X msg 1579 1120 0.5 120;
#X obj 1299 728 metro 6000;
#X msg 1591 1144 0.01 130;
#X obj 31 67 declare -stdpath cyclone;
#X obj 31 91 declare -stdpath iemlib;
#X obj 30 113 declare -stdpath comport;
#X obj 1042 94 tgl 15 0 empty empty empty 17 7 0 10 -262144 -1 -1 1
1;
#X msg 1042 128 \; pd dsp \$1;
#X obj 1042 22 loadbang;
#X obj 1042 44 bng 15 250 50 0 empty empty empty 17 7 0 10 -262144
-1 -1;
#X obj 1042 64 delay 5000;
#X floatatom 922 754 5 0 0 0 - - -, f 5;
#X obj 975 865 rand~ 10;
#X obj 922 925 +~, f 8;
#X obj 922 895 line~;
#X obj 953 1039 +~ 1.6;
#X obj 953 1061 *~ 0.2;
#X obj 953 1014 rand~ 20;
#X obj 921 1092 -~, f 5;
#X obj 975 894 *~ 1.2;
#N canvas 323 279 450 300 formant3_M_heed 0;
#X obj 38 29 inlet~;
#X obj 38 210 outlet~;
#X obj 296 134 reson~ 1 3010 100;
#X obj 168 135 reson~ 1 2290 100;
#X obj 38 136 reson~ 1 270 100;
#X connect 0 0 2 0;
#X connect 0 0 3 0;
#X connect 0 0 4 0;
#X connect 2 0 1 0;
#X connect 3 0 1 0;
#X connect 4 0 1 0;
#X restore 54 1150 pd formant3_M_heed;
#N canvas 0 23 450 300 formant3_M_head 0;
#X obj 38 29 inlet~;
#X obj 38 210 outlet~;
#X obj 38 136 reson~ 1 530 100;
#X obj 168 135 reson~ 1 1840 100;
#X obj 296 134 reson~ 1 2480 100;
#X connect 0 0 2 0;
#X connect 0 0 3 0;
#X connect 0 0 4 0;
#X connect 2 0 1 0;
#X connect 3 0 1 0;
#X connect 4 0 1 0;
#X restore 188 1150 pd formant3_M_head;
#N canvas 0 23 450 300 formant3_M_had 0;
#X obj 38 29 inlet~;
#X obj 38 210 outlet~;
#X obj 38 136 reson~ 1 660 100;
#X obj 168 135 reson~ 1 1720 100;
#X obj 296 134 reson~ 1 2410 100;
#X connect 0 0 2 0;
#X connect 0 0 3 0;
#X connect 0 0 4 0;
#X connect 2 0 1 0;
#X connect 3 0 1 0;
#X connect 4 0 1 0;
#X restore 329 1148 pd formant3_M_had;
#N canvas 0 23 450 300 formant3_M_hod 0;
#X obj 38 29 inlet~;
#X obj 38 210 outlet~;
#X obj 38 136 reson~ 1 730 100;
#X obj 168 135 reson~ 1 1090 100;
#X obj 296 134 reson~ 1 2440 100;
#X connect 0 0 2 0;
#X connect 0 0 3 0;
#X connect 0 0 4 0;
#X connect 2 0 1 0;
#X connect 3 0 1 0;
#X connect 4 0 1 0;
#X restore 458 1148 pd formant3_M_hod;
#N canvas 0 23 450 300 formant3_M_haw'd 0;
#X obj 38 29 inlet~;
#X obj 38 210 outlet~;
#X obj 38 136 reson~ 1 570 100;
#X obj 168 135 reson~ 1 840 100;
#X obj 296 134 reson~ 1 2410 100;
#X connect 0 0 2 0;
#X connect 0 0 3 0;
#X connect 0 0 4 0;
#X connect 2 0 1 0;
#X connect 3 0 1 0;
#X connect 4 0 1 0;
#X restore 601 1147 pd formant3_M_haw'd;
#N canvas 0 23 450 300 formant3_M_who'd 0;
#X obj 38 29 inlet~;
#X obj 38 210 outlet~;
#X obj 38 136 reson~ 1 300 100;
#X obj 168 135 reson~ 1 870 100;
#X obj 296 134 reson~ 1 2240 100;
#X connect 0 0 2 0;
#X connect 0 0 3 0;
#X connect 0 0 4 0;
#X connect 2 0 1 0;
#X connect 3 0 1 0;
#X connect 4 0 1 0;
#X restore 755 1148 pd formant3_M_who'd;
#X obj 303 1389 dac~ 1 2;
#X msg 1512 1145 0.08 400;
#X msg 1328 1147 0.15 1000;
#X obj 262 1435 vu 15 120 empty empty -1 -8 0 10 -66577 -1 1 0;
#X obj 261 1389 env~;
#X obj 261 1411 - 100;
#X msg 1500 1121 1.2 100;
#X msg 1490 1099 190 450;
#X obj 329 1306 +~;
#X obj 454 2029 bng 15 250 50 0 empty empty empty 17 7 0 10 -262144
-1 -1;
#X obj 373 1437 vu 15 120 empty empty -1 -8 0 10 -66577 -1 1 0;
#X obj 372 1391 env~;
#X obj 372 1413 - 100;
#X obj 1490 1066 del 4200;
#X obj 1570 1068 del 4960;
#X obj 1464 812 - 350;
#X obj 1464 789 random 700;
#X obj 1464 834 + 6000;
#X obj 1463 859 / 6000;
#X obj 1442 994 * 1000;
#X obj 1299 764 t b b b, f 24;
#X obj 1538 997 * 4200;
#X obj 1618 999 * 4900;
#X floatatom 1365 704 5 0 0 0 - - -, f 5;
#X floatatom 1555 708 5 0 0 0 - - -, f 5;
#X obj 1556 789 / 2;
#X msg 1398 1100 25 2000;
#X text 80 44 LIBRARIES NEEDED!;
#X obj 1277 1268 reson~ 1 40 0.1, f 18;
#X text 884 755 FREQ;
#X obj 53 1076 line~;
#X obj 54 1116 *~, f 8;
#X obj 187 1076 line~;
#X obj 188 1116 *~, f 8;
#X obj 327 1071 line~;
#X obj 328 1111 *~, f 8;
#X obj 457 1077 line~;
#X obj 458 1117 *~, f 8;
#X obj 602 1076 line~;
#X obj 603 1116 *~, f 8;
#X obj 754 1076 line~;
#X obj 755 1116 *~, f 8;
#X obj 17 809 hradio 25 1 0 7 empty empty empty 0 -8 0 10 -262144 -1
-1 0;
#N canvas 0 23 450 300 onoff 0;
#X obj 34 29 inlet;
#X msg 88 69 0;
#X msg 34 70 1;
#X obj 34 92 outlet;
#X obj 88 91 outlet;
#X connect 0 0 2 0;
#X connect 0 0 1 0;
#X connect 1 0 4 0;
#X connect 2 0 3 0;
#X restore 53 915 pd onoff;
#N canvas 0 23 450 300 onoff 0;
#X obj 34 29 inlet;
#X msg 88 69 0;
#X msg 34 70 1;
#X obj 34 92 outlet;
#X obj 88 91 outlet;
#X connect 0 0 2 0;
#X connect 0 0 1 0;
#X connect 1 0 4 0;
#X connect 2 0 3 0;
#X restore 180 915 pd onoff;
#N canvas 0 23 450 300 onoff 0;
#X obj 34 29 inlet;
#X msg 88 69 0;
#X msg 34 70 1;
#X obj 34 92 outlet;
#X obj 88 91 outlet;
#X connect 0 0 2 0;
#X connect 0 0 1 0;
#X connect 1 0 4 0;
#X connect 2 0 3 0;
#X restore 319 914 pd onoff;
#N canvas 0 23 450 300 onoff 0;
#X obj 34 29 inlet;
#X msg 88 69 0;
#X msg 34 70 1;
#X obj 34 92 outlet;
#X obj 88 91 outlet;
#X connect 0 0 2 0;
#X connect 0 0 1 0;
#X connect 1 0 4 0;
#X connect 2 0 3 0;
#X restore 447 917 pd onoff;
#N canvas 0 23 450 300 onoff 0;
#X obj 34 29 inlet;
#X msg 88 69 0;
#X msg 34 70 1;
#X obj 34 92 outlet;
#X obj 88 91 outlet;
#X connect 0 0 2 0;
#X connect 0 0 1 0;
#X connect 1 0 4 0;
#X connect 2 0 3 0;
#X restore 583 914 pd onoff;
#N canvas 0 23 450 300 onoff 0;
#X obj 34 29 inlet;
#X msg 88 69 0;
#X msg 34 70 1;
#X obj 34 92 outlet;
#X obj 88 91 outlet;
#X connect 0 0 2 0;
#X connect 0 0 1 0;
#X connect 1 0 4 0;
#X connect 2 0 3 0;
#X restore 721 919 pd onoff;
#X obj 54 1035 pack f 40;
#X obj 188 1037 pack f 40;
#X obj 326 1036 pack f 40;
#X obj 453 1039 pack f 40;
#X obj 598 1039 pack f 40;
#X obj 753 1039 pack f 40;
#X floatatom 813 685 5 0 0 0 - - -, f 5;
#X obj 967 1161 vu 15 120 empty empty -1 -8 0 10 -66577 -1 1 0;
#X obj 966 1115 env~;
#X obj 966 1137 - 100;
#X obj 17 839 sel 0 1 2 3 4 5 6, f 115;
#X msg 15 916 0;
#X obj 492 609 metro 1000;
#X obj 492 722 mtof;
#X obj 492 562 tgl 15 0 empty empty empty 17 7 0 10 -262144 -1 -1 0
1;
#X obj 17 680 random 7;
#X floatatom 559 564 5 0 0 0 - - -, f 5;
#X obj 492 681 + 36;
#X floatatom 17 702 5 0 0 0 - - -, f 5;
#X obj 492 653 drunk 24 4, f 15;
#X floatatom 594 628 5 0 0 0 - - -, f 5;
#X obj 922 831 pack f 20, f 11;
#X floatatom 992 684 5 0 0 0 - - -, f 5;
#X obj 1277 1297 rev2~ 92 80 2 99, f 29;
#X obj 922 985 reson~ 3 40 0.4, f 18;
#X floatatom 492 703 5 0 0 0 - - -, f 5;
#X text 536 696 SCELTA NOTA MIDI => FREQ "CANTATA";
#X text 634 628 MAX INTERVALLO (MIDI);
#X text 997 701 VELOCITà GLISSANDO (ms), f 14;
#X text 1290 665 FAKE RESPIRO;
#X text 598 563 VELOCITà METRONOMO CAMBIO PARAMENTRI (ms);
#X text 366 563 ON/OFF METRONOMO;
#X text 82 680 SCELTA BANCO DI FILTRI PER FORMANTI == SCELTA VOCALE
;
#X text 643 54 ATMOSFACE MAIN PATCH;
#X text 1068 91 ON/OFF AUDIO (si accende da solo XD), f 26;
#N canvas 751 244 666 501 preset 0;
#X obj 184 454 unpack f f f f f, f 29;
#X obj 184 488 outlet;
#X obj 234 488 outlet;
#X obj 284 488 outlet;
#X obj 334 488 outlet;
#X obj 384 487 outlet;
#X msg 23 350 0 22 3 200 40;
#X obj 23 24 inlet;
#X msg 165 195 1 200 6 80 100;
#X msg 260 114 1 22 10 10 40;
#X msg 136 223 1 500 3 400 300;
#X msg 108 251 1 600 2 2000 2000;
#X msg 77 284 1 600 1 1200 2000;
#X obj 23 64 sel 0 8 1 2 3 4 5 6 7, f 39;
#X msg 192 167 1 100 9 60 40, f 16;
#X msg 220 141 1 70 3 20 40;
#X connect 0 0 1 0;
#X connect 0 1 2 0;
#X connect 0 2 3 0;
#X connect 0 3 4 0;
#X connect 0 4 5 0;
#X connect 6 0 0 0;
#X connect 7 0 13 0;
#X connect 8 0 0 0;
#X connect 9 0 0 0;
#X connect 10 0 0 0;
#X connect 11 0 0 0;
#X connect 12 0 0 0;
#X connect 13 0 6 0;
#X connect 13 2 12 0;
#X connect 13 3 11 0;
#X connect 13 4 10 0;
#X connect 13 5 8 0;
#X connect 13 6 14 0;
#X connect 13 7 15 0;
#X connect 13 8 9 0;
#X connect 14 0 0 0;
#X connect 15 0 0 0;
#X restore 496 359 pd preset;
#X obj 414 607 sel 1;
#X text 853 686 VELOCITà FADE TRA VOCALI (ms);
#X text 789 361 <- double click \, open and choose preset;
#X text 670 177 proximity 1;
#X text 804 178 proximity 2;
#X text 511 180 array touch;
#X obj 792 277 / 6553.5;
#X text 194 385 [...interazione tra sensori e parametri da definire...]
, f 36;
#X obj 543 480 +;
#X obj 647 280 / 655.35;
#X obj 903 791 +;
#X obj 497 155 decoder, f 43;
#N canvas 0 23 296 382 sum 0;
#X obj 30 24 inlet;
#X obj 30 46 unpack f f f f f f f f f f;
#X obj 33 269 +;
#X obj 189 70 +;
#X obj 171 93 +;
#X obj 151 119 +;
#X obj 132 144 +;
#X obj 116 169 +;
#X obj 97 195 +;
#X obj 79 218 +;
#X obj 59 240 +;
#X obj 33 291 outlet;
#X connect 0 0 1 0;
#X connect 1 0 2 0;
#X connect 1 1 10 0;
#X connect 1 2 9 0;
#X connect 1 3 8 0;
#X connect 1 4 7 0;
#X connect 1 5 6 0;
#X connect 1 6 5 0;
#X connect 1 7 4 0;
#X connect 1 8 3 0;
#X connect 1 9 3 1;
#X connect 2 0 11 0;
#X connect 3 0 4 1;
#X connect 4 0 5 1;
#X connect 5 0 6 1;
#X connect 6 0 7 1;
#X connect 7 0 8 1;
#X connect 8 0 9 1;
#X connect 9 0 10 1;
#X connect 10 0 2 1;
#X restore 497 238 pd sum;
#X floatatom 497 295 5 0 0 0 - - -, f 5;
#X obj 922 954 phasor~ 440;
#X connect 0 0 65 1;
#X connect 1 0 63 0;
#X connect 2 0 0 0;
#X connect 3 0 12 0;
#X connect 4 0 2 0;
#X connect 4 0 9 0;
#X connect 5 0 39 0;
#X connect 5 0 9 0;
#X connect 6 0 5 0;
#X connect 6 0 8 0;
#X connect 7 0 65 0;
#X connect 8 0 65 2;
#X connect 9 0 65 3;
#X connect 10 0 11 0;
#X connect 10 0 8 0;
#X connect 11 0 13 0;
#X connect 11 0 9 0;
#X connect 12 0 57 0;
#X connect 13 0 0 0;
#X connect 17 0 18 0;
#X connect 17 0 3 0;
#X connect 19 0 20 0;
#X connect 20 0 21 0;
#X connect 21 0 17 0;
#X connect 21 0 133 0;
#X connect 22 0 132 1;
#X connect 23 0 30 0;
#X connect 24 0 136 0;
#X connect 25 0 24 0;
#X connect 26 0 27 0;
#X connect 27 0 29 1;
#X connect 28 0 26 0;
#X connect 29 0 68 1;
#X connect 29 0 70 1;
#X connect 29 0 72 1;
#X connect 29 0 74 1;
#X connect 29 0 76 1;
#X connect 29 0 78 1;
#X connect 29 0 94 0;
#X connect 30 0 24 1;
#X connect 31 0 45 0;
#X connect 32 0 45 0;
#X connect 33 0 45 0;
#X connect 34 0 45 0;
#X connect 35 0 45 0;
#X connect 36 0 45 0;
#X connect 38 0 0 0;
#X connect 39 0 0 0;
#X connect 41 0 42 0;
#X connect 42 0 40 0;
#X connect 43 0 9 0;
#X connect 43 0 38 0;
#X connect 44 0 8 0;
#X connect 44 0 43 0;
#X connect 45 0 37 0;
#X connect 45 0 37 1;
#X connect 45 0 41 0;
#X connect 45 0 48 0;
#X connect 48 0 49 0;
#X connect 49 0 47 0;
#X connect 50 0 44 0;
#X connect 51 0 10 0;
#X connect 52 0 54 0;
#X connect 53 0 52 0;
#X connect 54 0 55 0;
#X connect 54 0 60 0;
#X connect 55 0 56 0;
#X connect 55 0 58 0;
#X connect 55 0 59 0;
#X connect 56 0 1 1;
#X connect 57 0 6 0;
#X connect 57 0 1 0;
#X connect 57 0 50 0;
#X connect 57 0 51 0;
#X connect 57 2 53 0;
#X connect 58 0 50 1;
#X connect 59 0 51 1;
#X connect 60 0 12 1;
#X connect 61 0 62 0;
#X connect 61 0 53 1;
#X connect 62 0 52 1;
#X connect 63 0 4 0;
#X connect 63 0 8 0;
#X connect 65 0 109 0;
#X connect 67 0 68 0;
#X connect 68 0 31 0;
#X connect 69 0 70 0;
#X connect 70 0 32 0;
#X connect 71 0 72 0;
#X connect 72 0 33 0;
#X connect 73 0 74 0;
#X connect 74 0 34 0;
#X connect 75 0 76 0;
#X connect 76 0 35 0;
#X connect 77 0 78 0;
#X connect 78 0 36 0;
#X connect 79 0 96 0;
#X connect 80 0 86 0;
#X connect 80 1 87 0;
#X connect 80 1 88 0;
#X connect 80 1 89 0;
#X connect 80 1 90 0;
#X connect 80 1 91 0;
#X connect 81 0 87 0;
#X connect 81 1 86 0;
#X connect 81 1 88 0;
#X connect 81 1 89 0;
#X connect 81 1 90 0;
#X connect 81 1 91 0;
#X connect 82 0 88 0;
#X connect 82 1 86 0;
#X connect 82 1 87 0;
#X connect 82 1 89 0;
#X connect 82 1 90 0;
#X connect 82 1 91 0;
#X connect 83 0 89 0;
#X connect 83 1 86 0;
#X connect 83 1 87 0;
#X connect 83 1 88 0;
#X connect 83 1 90 0;
#X connect 83 1 91 0;
#X connect 84 0 90 0;
#X connect 84 1 86 0;
#X connect 84 1 87 0;
#X connect 84 1 88 0;
#X connect 84 1 89 0;
#X connect 84 1 91 0;
#X connect 85 0 91 0;
#X connect 85 1 86 0;
#X connect 85 1 87 0;
#X connect 85 1 88 0;
#X connect 85 1 89 0;
#X connect 85 1 90 0;
#X connect 86 0 67 0;
#X connect 87 0 69 0;
#X connect 88 0 71 0;
#X connect 89 0 73 0;
#X connect 90 0 75 0;
#X connect 91 0 77 0;
#X connect 92 0 91 1;
#X connect 92 0 90 1;
#X connect 92 0 89 1;
#X connect 92 0 88 1;
#X connect 92 0 86 1;
#X connect 92 0 87 1;
#X connect 94 0 95 0;
#X connect 95 0 93 0;
#X connect 96 0 97 0;
#X connect 96 1 80 0;
#X connect 96 2 81 0;
#X connect 96 3 82 0;
#X connect 96 4 83 0;
#X connect 96 5 84 0;
#X connect 96 6 85 0;
#X connect 97 0 86 0;
#X connect 97 0 87 0;
#X connect 97 0 88 0;
#X connect 97 0 89 0;
#X connect 97 0 90 0;
#X connect 97 0 91 0;
#X connect 98 0 101 0;
#X connect 98 0 105 0;
#X connect 99 0 22 0;
#X connect 100 0 98 0;
#X connect 100 0 122 0;
#X connect 101 0 104 0;
#X connect 102 0 98 1;
#X connect 103 0 111 0;
#X connect 104 0 79 0;
#X connect 105 0 103 0;
#X connect 106 0 105 2;
#X connect 107 0 25 0;
#X connect 108 0 107 1;
#X connect 109 0 37 0;
#X connect 109 0 41 0;
#X connect 109 1 37 1;
#X connect 109 1 48 0;
#X connect 110 0 29 0;
#X connect 111 0 99 0;
#X connect 121 0 100 0;
#X connect 121 1 130 1;
#X connect 121 2 106 0;
#X connect 121 3 92 0;
#X connect 121 4 108 0;
#X connect 122 1 79 0;
#X connect 128 0 132 0;
#X connect 130 0 102 0;
#X connect 131 0 130 0;
#X connect 132 0 107 0;
#X connect 133 0 134 0;
#X connect 133 1 131 0;
#X connect 133 2 128 0;
#X connect 134 0 135 0;
#X connect 135 0 121 0;
#X connect 136 0 110 0;
#X coords 0 0 100 1 0 0 0;
