#N canvas 0 93 1184 531 10;
#X declare -stdpath cyclone;
#X declare -stdpath iemlib;
#X declare -stdpath comport;
#X declare -stdpath maxlib;
#X obj 1327 1225 line~;
#X obj 1397 1067 del 1000;
#X msg 1419 1146 0.01 2000;
#X obj 1300 692 tgl 15 0 empty empty empty 17 7 0 10 -262144 -1 -1
1 1;
#X msg 1408 1122 1 100;
#X msg 1317 1123 0.8 100;
#X obj 1277 1225 pink~;
#X obj 1374 1225 line~;
#X obj 1418 1224 line~;
#X msg 1579 1120 0.5 120;
#X obj 1299 728 metro 6000;
#X msg 1591 1144 0.01 130;
#X obj 31 67 declare -stdpath cyclone;
#X obj 31 91 declare -stdpath iemlib;
#X obj 30 113 declare -stdpath comport;
#X obj 1042 94 tgl 15 0 empty empty empty 17 7 0 10 -262144 -1 -1 1
1;
#X msg 1042 128 \; pd dsp \$1;
#X obj 1042 22 loadbang;
#X obj 1042 44 bng 15 250 50 0 empty empty empty 17 7 0 10 -262144
-1 -1;
#X obj 1042 64 delay 5000;
#X floatatom 922 754 5 0 0 0 - - -, f 5;
#X obj 975 865 rand~ 10;
#X obj 922 925 +~, f 8;
#X obj 922 895 line~;
#X obj 953 1061 *~ 0.2;
#X obj 953 1014 rand~ 20;
#X obj 921 1092 -~, f 5;
#X obj 975 894 *~ 1.2;
#N canvas 323 279 450 300 formant3_M_heed 0;
#X obj 38 29 inlet~;
#X obj 38 210 outlet~;
#X obj 296 134 reson~ 1 3010 100;
#X obj 168 135 reson~ 1 2290 100;
#X obj 38 136 reson~ 1 270 100;
#X connect 0 0 2 0;
#X connect 0 0 3 0;
#X connect 0 0 4 0;
#X connect 2 0 1 0;
#X connect 3 0 1 0;
#X connect 4 0 1 0;
#X restore 54 1150 pd formant3_M_heed;
#N canvas 0 50 450 300 formant3_M_head 0;
#X obj 38 29 inlet~;
#X obj 38 210 outlet~;
#X obj 38 136 reson~ 1 530 100;
#X obj 168 135 reson~ 1 1840 100;
#X obj 296 134 reson~ 1 2480 100;
#X connect 0 0 2 0;
#X connect 0 0 3 0;
#X connect 0 0 4 0;
#X connect 2 0 1 0;
#X connect 3 0 1 0;
#X connect 4 0 1 0;
#X restore 188 1150 pd formant3_M_head;
#N canvas 0 50 450 300 formant3_M_had 0;
#X obj 38 29 inlet~;
#X obj 38 210 outlet~;
#X obj 38 136 reson~ 1 660 100;
#X obj 168 135 reson~ 1 1720 100;
#X obj 296 134 reson~ 1 2410 100;
#X connect 0 0 2 0;
#X connect 0 0 3 0;
#X connect 0 0 4 0;
#X connect 2 0 1 0;
#X connect 3 0 1 0;
#X connect 4 0 1 0;
#X restore 329 1148 pd formant3_M_had;
#N canvas 0 50 450 300 formant3_M_hod 0;
#X obj 38 29 inlet~;
#X obj 38 210 outlet~;
#X obj 38 136 reson~ 1 730 100;
#X obj 168 135 reson~ 1 1090 100;
#X obj 296 134 reson~ 1 2440 100;
#X connect 0 0 2 0;
#X connect 0 0 3 0;
#X connect 0 0 4 0;
#X connect 2 0 1 0;
#X connect 3 0 1 0;
#X connect 4 0 1 0;
#X restore 458 1148 pd formant3_M_hod;
#N canvas 0 50 450 300 formant3_M_haw'd 0;
#X obj 38 29 inlet~;
#X obj 38 210 outlet~;
#X obj 38 136 reson~ 1 570 100;
#X obj 168 135 reson~ 1 840 100;
#X obj 296 134 reson~ 1 2410 100;
#X connect 0 0 2 0;
#X connect 0 0 3 0;
#X connect 0 0 4 0;
#X connect 2 0 1 0;
#X connect 3 0 1 0;
#X connect 4 0 1 0;
#X restore 601 1147 pd formant3_M_haw'd;
#N canvas 2 101 450 300 formant3_M_who'd 0;
#X obj 38 29 inlet~;
#X obj 38 210 outlet~;
#X obj 296 134 reson~ 1 2240 120;
#X obj 168 135 reson~ 1 870 110;
#X obj 38 136 reson~ 1 300 90;
#X connect 0 0 2 0;
#X connect 0 0 3 0;
#X connect 0 0 4 0;
#X connect 2 0 1 0;
#X connect 3 0 1 0;
#X connect 4 0 1 0;
#X restore 755 1148 pd formant3_M_who'd;
#X obj 918 1390 dac~ 1 2;
#X obj 877 1436 vu 15 120 empty empty -1 -8 0 10 -66577 -1 1 0;
#X obj 876 1390 env~;
#X obj 876 1412 - 100;
#X msg 1500 1121 1.2 100;
#X obj 454 2029 bng 15 250 50 0 empty empty empty 17 7 0 10 -262144
-1 -1;
#X obj 988 1438 vu 15 120 empty empty -1 -8 0 10 -66577 -1 1 0;
#X obj 987 1392 env~;
#X obj 987 1414 - 100;
#X obj 1490 1066 del 4200;
#X obj 1570 1068 del 4960;
#X obj 1464 834 + 6000;
#X obj 1463 859 / 6000;
#X obj 1442 994 * 1000;
#X obj 1299 764 t b b b, f 24;
#X obj 1538 997 * 4200;
#X obj 1618 999 * 4900;
#X floatatom 1365 704 5 0 0 0 - - -, f 5;
#X floatatom 1555 708 5 0 0 0 - - -, f 5;
#X obj 1556 789 / 2;
#X msg 1398 1100 25 2000;
#X text 80 44 LIBRARIES NEEDED!;
#X text 884 755 FREQ;
#X obj 53 1076 line~;
#X obj 54 1116 *~, f 8;
#X obj 187 1076 line~;
#X obj 188 1116 *~, f 8;
#X obj 327 1071 line~;
#X obj 328 1111 *~, f 8;
#X obj 457 1077 line~;
#X obj 458 1117 *~, f 8;
#X obj 602 1076 line~;
#X obj 603 1116 *~, f 8;
#X obj 754 1076 line~;
#X obj 755 1116 *~, f 8;
#X obj 17 809 hradio 25 1 0 7 empty empty empty 0 -8 0 10 -262144 -1
-1 0;
#N canvas 0 50 450 300 onoff 0;
#X obj 34 29 inlet;
#X msg 88 69 0;
#X msg 34 70 1;
#X obj 34 92 outlet;
#X obj 88 91 outlet;
#X connect 0 0 2 0;
#X connect 0 0 1 0;
#X connect 1 0 4 0;
#X connect 2 0 3 0;
#X restore 53 915 pd onoff;
#N canvas 0 50 450 300 onoff 0;
#X obj 34 29 inlet;
#X msg 88 69 0;
#X msg 34 70 1;
#X obj 34 92 outlet;
#X obj 88 91 outlet;
#X connect 0 0 2 0;
#X connect 0 0 1 0;
#X connect 1 0 4 0;
#X connect 2 0 3 0;
#X restore 180 915 pd onoff;
#N canvas 0 50 450 300 onoff 0;
#X obj 34 29 inlet;
#X msg 88 69 0;
#X msg 34 70 1;
#X obj 34 92 outlet;
#X obj 88 91 outlet;
#X connect 0 0 2 0;
#X connect 0 0 1 0;
#X connect 1 0 4 0;
#X connect 2 0 3 0;
#X restore 319 914 pd onoff;
#N canvas 0 50 450 300 onoff 0;
#X obj 34 29 inlet;
#X msg 88 69 0;
#X msg 34 70 1;
#X obj 34 92 outlet;
#X obj 88 91 outlet;
#X connect 0 0 2 0;
#X connect 0 0 1 0;
#X connect 1 0 4 0;
#X connect 2 0 3 0;
#X restore 447 917 pd onoff;
#N canvas 0 50 450 300 onoff 0;
#X obj 34 29 inlet;
#X msg 88 69 0;
#X msg 34 70 1;
#X obj 34 92 outlet;
#X obj 88 91 outlet;
#X connect 0 0 2 0;
#X connect 0 0 1 0;
#X connect 1 0 4 0;
#X connect 2 0 3 0;
#X restore 583 914 pd onoff;
#N canvas 0 50 450 300 onoff 0;
#X obj 34 29 inlet;
#X msg 88 69 0;
#X msg 34 70 1;
#X obj 34 92 outlet;
#X obj 88 91 outlet;
#X connect 0 0 2 0;
#X connect 0 0 1 0;
#X connect 1 0 4 0;
#X connect 2 0 3 0;
#X restore 721 919 pd onoff;
#X obj 54 1035 pack f 40;
#X obj 188 1037 pack f 40;
#X obj 326 1036 pack f 40;
#X obj 453 1039 pack f 40;
#X obj 598 1039 pack f 40;
#X obj 753 1039 pack f 40;
#X floatatom 813 685 5 0 0 0 - - -, f 5;
#X obj 17 839 sel 0 1 2 3 4 5 6, f 115;
#X msg 15 916 0;
#X obj 492 609 metro 1000;
#X obj 492 722 mtof;
#X obj 492 562 tgl 15 0 empty empty empty 17 7 0 10 -262144 -1 -1 0
1;
#X obj 17 680 random 7;
#X floatatom 559 564 5 0 0 0 - - -, f 5;
#X floatatom 17 702 5 0 0 0 - - -, f 5;
#X floatatom 594 628 5 0 0 0 - - -, f 5;
#X obj 922 831 pack f 20, f 11;
#X floatatom 992 684 5 0 0 0 - - -, f 5;
#X floatatom 492 703 5 0 0 0 - - -, f 5;
#X text 536 696 SCELTA NOTA MIDI => FREQ "CANTATA";
#X text 634 628 MAX INTERVALLO (MIDI);
#X text 1003 722 VELOCITà GLISSANDO (ms), f 14;
#X text 1290 665 FAKE RESPIRO;
#X text 598 563 VELOCITà METRONOMO CAMBIO PARAMENTRI (ms);
#X text 366 563 ON/OFF METRONOMO;
#X text 82 680 SCELTA BANCO DI FILTRI PER FORMANTI == SCELTA VOCALE
;
#X text 643 54 ATMOSFACE MAIN PATCH;
#X text 1068 91 ON/OFF AUDIO (si accende da solo XD), f 26;
#N canvas 240 164 666 501 preset 0;
#X obj 184 454 unpack f f f f f, f 29;
#X obj 184 488 outlet;
#X obj 234 488 outlet;
#X obj 284 488 outlet;
#X obj 334 488 outlet;
#X obj 384 487 outlet;
#X obj 23 24 inlet;
#X msg 165 195 1 200 6 80 100;
#X msg 260 114 1 22 10 10 40;
#X msg 136 223 1 500 3 400 300;
#X obj 23 64 sel 0 8 1 2 3 4 5 6 7, f 39;
#X msg 192 167 1 100 9 60 40, f 16;
#X msg 220 141 1 70 3 20 40;
#X msg 23 350 0 200 3 200 40;
#X msg 77 284 1 400 1 1200 100;
#X msg 108 250 1 600 1 2000 100;
#X connect 0 0 1 0;
#X connect 0 1 2 0;
#X connect 0 2 3 0;
#X connect 0 3 4 0;
#X connect 0 4 5 0;
#X connect 6 0 10 0;
#X connect 7 0 0 0;
#X connect 8 0 0 0;
#X connect 9 0 0 0;
#X connect 10 0 13 0;
#X connect 10 2 14 0;
#X connect 10 3 15 0;
#X connect 10 4 9 0;
#X connect 10 5 7 0;
#X connect 10 6 11 0;
#X connect 10 7 12 0;
#X connect 10 8 8 0;
#X connect 11 0 0 0;
#X connect 12 0 0 0;
#X connect 13 0 0 0;
#X connect 14 0 0 0;
#X connect 15 0 0 0;
#X restore 496 359 pd preset;
#X obj 414 607 sel 1;
#X text 852 661 VELOCITà FADE TRA VOCALI (ms);
#X text 583 364 <- double click \, open and choose preset;
#X text 670 177 proximity 1;
#X text 804 178 proximity 2;
#X text 503 177 array touch;
#X text 194 385 [...interazione tra sensori e parametri da definire...]
, f 36;
#X obj 543 480 +;
#X obj 903 791 +;
#X obj 497 155 decoder, f 43;
#N canvas 2 101 469 382 sum 0;
#X obj 30 24 inlet;
#X obj 30 46 unpack f f f f f f f f f f;
#X obj 33 269 +;
#X obj 189 70 +;
#X obj 171 93 +;
#X obj 151 119 +;
#X obj 132 144 +;
#X obj 116 169 +;
#X obj 97 195 +;
#X obj 79 218 +;
#X obj 59 240 +;
#X obj 318 27 inlet;
#X obj 33 293 +, f 41;
#X obj 33 315 outlet;
#X connect 0 0 1 0;
#X connect 1 0 2 0;
#X connect 1 1 10 0;
#X connect 1 2 9 0;
#X connect 1 3 8 0;
#X connect 1 4 7 0;
#X connect 1 5 6 0;
#X connect 1 6 5 0;
#X connect 1 7 4 0;
#X connect 1 8 3 0;
#X connect 1 9 3 1;
#X connect 2 0 12 0;
#X connect 3 0 4 1;
#X connect 4 0 5 1;
#X connect 5 0 6 1;
#X connect 6 0 7 1;
#X connect 7 0 8 1;
#X connect 8 0 9 1;
#X connect 9 0 10 1;
#X connect 10 0 2 1;
#X connect 11 0 12 1;
#X connect 12 0 13 0;
#X restore 497 238 pd sum;
#X floatatom 497 295 5 0 0 0 - - -, f 5;
#X obj 922 955 phasor~ 440;
#X obj 1277 1268 reson~ 15 400 0.1, f 18;
#X obj 804 326 / 655.35;
#X msg 1306 1101 100 900;
#X msg 1328 1147 0.08 900;
#X obj 953 1039 +~ 1.6;
#X floatatom 985 1172 5 0 0 0 - - -, f 5;
#X msg 985 1191 \$1 20;
#X obj 985 1213 line~;
#X obj 329 1306 *~;
#X obj 985 1143 loadmess 8;
#X obj 1278 1297 reson~ 3 400 0.4, f 18;
#X obj 1464 789 random 1200;
#X obj 1464 812 - 400;
#X msg 1490 1099 190 420;
#X msg 1511 1145 0.1 380;
#X msg 1570 1098 50 150;
#X obj 585 248 > 10000;
#X obj 693 241 > 10000;
#X obj 585 270 +;
#X obj 492 681 + 21;
#X obj 585 292 == 2;
#X floatatom 415 230 5 0 0 0 - - -, f 5;
#X floatatom 428 192 5 0 0 0 - - -, f 5;
#X floatatom 1094 1029 5 0 0 0 - - -, f 5;
#X obj 922 985 reson~ 6 40 0.4, f 18;
#X obj 1094 1007 + 3;
#X obj 29 134 declare -stdpath maxlib;
#X obj 644 300 / 6553.5;
#X floatatom 644 322 5 0 0 0 - - -, f 5;
#X obj 328 1376 reson~ 2 40 0.3, f 18;
#X obj 329 1330 reson~ 5 2000 1.2, f 18;
#N canvas 0 93 1184 531 coro 0;
#X floatatom 954 401 5 0 0 0 - - -, f 5;
#X obj 1007 512 rand~ 10;
#X obj 954 572 +~, f 8;
#X obj 954 542 line~;
#X obj 985 708 *~ 0.2;
#X obj 985 661 rand~ 20;
#X obj 953 739 -~, f 5;
#X obj 1007 541 *~ 1.2;
#N canvas 323 279 450 300 formant3_M_heed 0;
#X obj 38 29 inlet~;
#X obj 38 210 outlet~;
#X obj 296 134 reson~ 1 3010 100;
#X obj 168 135 reson~ 1 2290 100;
#X obj 38 136 reson~ 1 270 100;
#X connect 0 0 2 0;
#X connect 0 0 3 0;
#X connect 0 0 4 0;
#X connect 2 0 1 0;
#X connect 3 0 1 0;
#X connect 4 0 1 0;
#X restore 86 797 pd formant3_M_heed;
#N canvas 0 50 450 300 formant3_M_head 0;
#X obj 38 29 inlet~;
#X obj 38 210 outlet~;
#X obj 38 136 reson~ 1 530 100;
#X obj 168 135 reson~ 1 1840 100;
#X obj 296 134 reson~ 1 2480 100;
#X connect 0 0 2 0;
#X connect 0 0 3 0;
#X connect 0 0 4 0;
#X connect 2 0 1 0;
#X connect 3 0 1 0;
#X connect 4 0 1 0;
#X restore 220 797 pd formant3_M_head;
#N canvas 0 50 450 300 formant3_M_had 0;
#X obj 38 29 inlet~;
#X obj 38 210 outlet~;
#X obj 38 136 reson~ 1 660 100;
#X obj 168 135 reson~ 1 1720 100;
#X obj 296 134 reson~ 1 2410 100;
#X connect 0 0 2 0;
#X connect 0 0 3 0;
#X connect 0 0 4 0;
#X connect 2 0 1 0;
#X connect 3 0 1 0;
#X connect 4 0 1 0;
#X restore 361 795 pd formant3_M_had;
#N canvas 0 50 450 300 formant3_M_hod 0;
#X obj 38 29 inlet~;
#X obj 38 210 outlet~;
#X obj 38 136 reson~ 1 730 100;
#X obj 168 135 reson~ 1 1090 100;
#X obj 296 134 reson~ 1 2440 100;
#X connect 0 0 2 0;
#X connect 0 0 3 0;
#X connect 0 0 4 0;
#X connect 2 0 1 0;
#X connect 3 0 1 0;
#X connect 4 0 1 0;
#X restore 490 795 pd formant3_M_hod;
#N canvas 0 50 450 300 formant3_M_haw'd 0;
#X obj 38 29 inlet~;
#X obj 38 210 outlet~;
#X obj 38 136 reson~ 1 570 100;
#X obj 168 135 reson~ 1 840 100;
#X obj 296 134 reson~ 1 2410 100;
#X connect 0 0 2 0;
#X connect 0 0 3 0;
#X connect 0 0 4 0;
#X connect 2 0 1 0;
#X connect 3 0 1 0;
#X connect 4 0 1 0;
#X restore 633 794 pd formant3_M_haw'd;
#N canvas 2 101 450 300 formant3_M_who'd 0;
#X obj 38 29 inlet~;
#X obj 38 210 outlet~;
#X obj 296 134 reson~ 1 2240 120;
#X obj 168 135 reson~ 1 870 110;
#X obj 38 136 reson~ 1 300 90;
#X connect 0 0 2 0;
#X connect 0 0 3 0;
#X connect 0 0 4 0;
#X connect 2 0 1 0;
#X connect 3 0 1 0;
#X connect 4 0 1 0;
#X restore 787 795 pd formant3_M_who'd;
#X text 916 402 FREQ;
#X obj 85 723 line~;
#X obj 86 763 *~, f 8;
#X obj 219 723 line~;
#X obj 220 763 *~, f 8;
#X obj 359 718 line~;
#X obj 360 758 *~, f 8;
#X obj 489 724 line~;
#X obj 490 764 *~, f 8;
#X obj 634 723 line~;
#X obj 635 763 *~, f 8;
#X obj 786 723 line~;
#X obj 787 763 *~, f 8;
#X obj 49 456 hradio 25 1 0 7 empty empty empty 0 -8 0 10 -262144 -1
-1 0;
#N canvas 0 50 450 300 onoff 0;
#X obj 34 29 inlet;
#X msg 88 69 0;
#X msg 34 70 1;
#X obj 34 92 outlet;
#X obj 88 91 outlet;
#X connect 0 0 2 0;
#X connect 0 0 1 0;
#X connect 1 0 4 0;
#X connect 2 0 3 0;
#X restore 85 562 pd onoff;
#N canvas 0 50 450 300 onoff 0;
#X obj 34 29 inlet;
#X msg 88 69 0;
#X msg 34 70 1;
#X obj 34 92 outlet;
#X obj 88 91 outlet;
#X connect 0 0 2 0;
#X connect 0 0 1 0;
#X connect 1 0 4 0;
#X connect 2 0 3 0;
#X restore 212 562 pd onoff;
#N canvas 0 50 450 300 onoff 0;
#X obj 34 29 inlet;
#X msg 88 69 0;
#X msg 34 70 1;
#X obj 34 92 outlet;
#X obj 88 91 outlet;
#X connect 0 0 2 0;
#X connect 0 0 1 0;
#X connect 1 0 4 0;
#X connect 2 0 3 0;
#X restore 351 561 pd onoff;
#N canvas 0 50 450 300 onoff 0;
#X obj 34 29 inlet;
#X msg 88 69 0;
#X msg 34 70 1;
#X obj 34 92 outlet;
#X obj 88 91 outlet;
#X connect 0 0 2 0;
#X connect 0 0 1 0;
#X connect 1 0 4 0;
#X connect 2 0 3 0;
#X restore 479 564 pd onoff;
#N canvas 0 50 450 300 onoff 0;
#X obj 34 29 inlet;
#X msg 88 69 0;
#X msg 34 70 1;
#X obj 34 92 outlet;
#X obj 88 91 outlet;
#X connect 0 0 2 0;
#X connect 0 0 1 0;
#X connect 1 0 4 0;
#X connect 2 0 3 0;
#X restore 615 561 pd onoff;
#N canvas 0 50 450 300 onoff 0;
#X obj 34 29 inlet;
#X msg 88 69 0;
#X msg 34 70 1;
#X obj 34 92 outlet;
#X obj 88 91 outlet;
#X connect 0 0 2 0;
#X connect 0 0 1 0;
#X connect 1 0 4 0;
#X connect 2 0 3 0;
#X restore 753 566 pd onoff;
#X obj 86 682 pack f 40;
#X obj 220 684 pack f 40;
#X obj 358 683 pack f 40;
#X obj 485 686 pack f 40;
#X obj 630 686 pack f 40;
#X obj 785 686 pack f 40;
#X floatatom 845 332 5 0 0 0 - - -, f 5;
#X obj 49 486 sel 0 1 2 3 4 5 6, f 115;
#X msg 47 563 0;
#X obj 524 256 metro 1000;
#X obj 524 369 mtof;
#X obj 524 209 tgl 15 0 empty empty empty 17 7 0 10 -262144 -1 -1 0
1;
#X obj 49 327 random 7;
#X floatatom 591 211 5 0 0 0 - - -, f 5;
#X floatatom 49 349 5 0 0 0 - - -, f 5;
#X obj 524 300 drunk 24 4, f 15;
#X floatatom 626 275 5 0 0 0 - - -, f 5;
#X obj 954 478 pack f 20, f 11;
#X floatatom 1024 331 5 0 0 0 - - -, f 5;
#X floatatom 524 350 5 0 0 0 - - -, f 5;
#X text 568 343 SCELTA NOTA MIDI => FREQ "CANTATA";
#X text 666 275 MAX INTERVALLO (MIDI);
#X text 1035 369 VELOCITà GLISSANDO (ms), f 14;
#X text 630 210 VELOCITà METRONOMO CAMBIO PARAMENTRI (ms);
#X text 398 210 ON/OFF METRONOMO;
#N canvas 240 164 666 501 preset 0;
#X obj 184 454 unpack f f f f f, f 29;
#X obj 184 488 outlet;
#X obj 234 488 outlet;
#X obj 284 488 outlet;
#X obj 334 488 outlet;
#X obj 384 487 outlet;
#X obj 23 24 inlet;
#X msg 165 195 1 200 6 80 100;
#X msg 260 114 1 22 10 10 40;
#X msg 136 223 1 500 3 400 300;
#X obj 23 64 sel 0 8 1 2 3 4 5 6 7, f 39;
#X msg 192 167 1 100 9 60 40, f 16;
#X msg 220 141 1 70 3 20 40;
#X msg 23 350 0 200 3 200 40;
#X msg 77 284 1 400 1 1200 100;
#X msg 108 250 1 600 1 2000 100;
#X connect 0 0 1 0;
#X connect 0 1 2 0;
#X connect 0 2 3 0;
#X connect 0 3 4 0;
#X connect 0 4 5 0;
#X connect 6 0 10 0;
#X connect 7 0 0 0;
#X connect 8 0 0 0;
#X connect 9 0 0 0;
#X connect 10 0 13 0;
#X connect 10 2 14 0;
#X connect 10 3 15 0;
#X connect 10 4 9 0;
#X connect 10 5 7 0;
#X connect 10 6 11 0;
#X connect 10 7 12 0;
#X connect 10 8 8 0;
#X connect 11 0 0 0;
#X connect 12 0 0 0;
#X connect 13 0 0 0;
#X connect 14 0 0 0;
#X connect 15 0 0 0;
#X restore 528 6 pd preset;
#X obj 446 254 sel 1;
#X text 884 308 VELOCITà FADE TRA VOCALI (ms);
#X text 615 11 <- double click \, open and choose preset;
#X obj 575 127 +;
#X obj 935 438 +;
#X obj 954 602 phasor~ 440;
#X obj 985 686 +~ 1.6;
#X floatatom 1017 819 5 0 0 0 - - -, f 5;
#X msg 1017 838 \$1 20;
#X obj 1017 860 line~;
#X obj 361 953 *~;
#X obj 1017 790 loadmess 8;
#X obj 524 328 + 21;
#X floatatom 1126 676 5 0 0 0 - - -, f 5;
#X obj 954 632 reson~ 6 40 0.4, f 18;
#X obj 1126 654 + 3;
#X connect 0 0 64 1;
#X connect 0 0 51 0;
#X connect 1 0 7 0;
#X connect 2 0 65 0;
#X connect 3 0 2 0;
#X connect 4 0 6 1;
#X connect 5 0 66 0;
#X connect 6 0 16 1;
#X connect 6 0 18 1;
#X connect 6 0 20 1;
#X connect 6 0 22 1;
#X connect 6 0 24 1;
#X connect 6 0 26 1;
#X connect 7 0 2 1;
#X connect 8 0 70 0;
#X connect 9 0 70 0;
#X connect 10 0 70 0;
#X connect 11 0 70 0;
#X connect 12 0 70 0;
#X connect 13 0 70 0;
#X connect 15 0 16 0;
#X connect 16 0 8 0;
#X connect 17 0 18 0;
#X connect 18 0 9 0;
#X connect 19 0 20 0;
#X connect 20 0 10 0;
#X connect 21 0 22 0;
#X connect 22 0 11 0;
#X connect 23 0 24 0;
#X connect 24 0 12 0;
#X connect 25 0 26 0;
#X connect 26 0 13 0;
#X connect 27 0 41 0;
#X connect 28 0 34 0;
#X connect 28 1 35 0;
#X connect 28 1 36 0;
#X connect 28 1 37 0;
#X connect 28 1 38 0;
#X connect 28 1 39 0;
#X connect 29 0 35 0;
#X connect 29 1 34 0;
#X connect 29 1 36 0;
#X connect 29 1 37 0;
#X connect 29 1 38 0;
#X connect 29 1 39 0;
#X connect 30 0 36 0;
#X connect 30 1 34 0;
#X connect 30 1 35 0;
#X connect 30 1 37 0;
#X connect 30 1 38 0;
#X connect 30 1 39 0;
#X connect 31 0 37 0;
#X connect 31 1 34 0;
#X connect 31 1 35 0;
#X connect 31 1 36 0;
#X connect 31 1 38 0;
#X connect 31 1 39 0;
#X connect 32 0 38 0;
#X connect 32 1 34 0;
#X connect 32 1 35 0;
#X connect 32 1 36 0;
#X connect 32 1 37 0;
#X connect 32 1 39 0;
#X connect 33 0 39 0;
#X connect 33 1 34 0;
#X connect 33 1 35 0;
#X connect 33 1 36 0;
#X connect 33 1 37 0;
#X connect 33 1 38 0;
#X connect 34 0 15 0;
#X connect 35 0 17 0;
#X connect 36 0 19 0;
#X connect 37 0 21 0;
#X connect 38 0 23 0;
#X connect 39 0 25 0;
#X connect 40 0 39 1;
#X connect 40 0 38 1;
#X connect 40 0 37 1;
#X connect 40 0 36 1;
#X connect 40 0 34 1;
#X connect 40 0 35 1;
#X connect 41 0 42 0;
#X connect 41 1 28 0;
#X connect 41 2 29 0;
#X connect 41 3 30 0;
#X connect 41 4 31 0;
#X connect 41 5 32 0;
#X connect 41 6 33 0;
#X connect 42 0 34 0;
#X connect 42 0 35 0;
#X connect 42 0 36 0;
#X connect 42 0 37 0;
#X connect 42 0 38 0;
#X connect 42 0 39 0;
#X connect 43 0 46 0;
#X connect 43 0 49 0;
#X connect 44 0 0 0;
#X connect 45 0 43 0;
#X connect 45 0 60 0;
#X connect 46 0 48 0;
#X connect 47 0 43 1;
#X connect 48 0 27 0;
#X connect 49 0 72 0;
#X connect 50 0 49 2;
#X connect 51 0 3 0;
#X connect 52 0 51 1;
#X connect 53 0 44 0;
#X connect 59 0 45 0;
#X connect 59 1 63 1;
#X connect 59 2 50 0;
#X connect 59 3 40 0;
#X connect 59 4 52 0;
#X connect 60 1 27 0;
#X connect 63 0 47 0;
#X connect 65 0 74 0;
#X connect 66 0 4 0;
#X connect 67 0 68 0;
#X connect 68 0 69 0;
#X connect 69 0 70 1;
#X connect 71 0 67 0;
#X connect 72 0 53 0;
#X connect 73 0 67 0;
#X connect 74 0 6 0;
#X connect 75 0 73 0;
#X restore 331 782 pd coro;
#X obj 492 653 drunk 36 4, f 15;
#X obj 497 325 * 2;
#N canvas 50 143 415 300 musichall 0;
#X obj 38 28 inlet;
#X obj 38 50 t b f b;
#X obj 108 133 mtof;
#X obj 108 155 osc~;
#X obj 39 228 outlet~;
#X obj 39 206 *~;
#X obj 38 99 pack 1 200;
#X obj 38 128 line~;
#X obj 38 162 *~;
#X obj 124 74 del 300;
#X obj 124 96 pack 0 5000;
#X connect 0 0 1 0;
#X connect 1 0 6 0;
#X connect 1 0 9 0;
#X connect 1 1 2 0;
#X connect 2 0 3 0;
#X connect 3 0 5 1;
#X connect 5 0 4 0;
#X connect 6 0 7 0;
#X connect 7 0 8 0;
#X connect 7 0 8 1;
#X connect 8 0 5 0;
#X connect 9 0 10 0;
#X connect 10 0 7 0;
#X restore 884 1301 pd musichall;
#X floatatom 894 1260 5 0 0 0 - - -, f 5;
#X connect 0 0 118 1;
#X connect 1 0 54 0;
#X connect 2 0 0 0;
#X connect 3 0 10 0;
#X connect 4 0 2 0;
#X connect 4 0 8 0;
#X connect 5 0 121 0;
#X connect 5 0 8 0;
#X connect 6 0 118 0;
#X connect 7 0 118 2;
#X connect 8 0 118 3;
#X connect 9 0 11 0;
#X connect 9 0 8 0;
#X connect 10 0 48 0;
#X connect 11 0 0 0;
#X connect 15 0 16 0;
#X connect 15 0 3 0;
#X connect 17 0 18 0;
#X connect 18 0 19 0;
#X connect 19 0 15 0;
#X connect 19 0 114 0;
#X connect 20 0 113 1;
#X connect 20 0 92 0;
#X connect 21 0 27 0;
#X connect 22 0 117 0;
#X connect 23 0 22 0;
#X connect 24 0 26 1;
#X connect 25 0 122 0;
#X connect 26 0 58 1;
#X connect 26 0 60 1;
#X connect 26 0 62 1;
#X connect 26 0 64 1;
#X connect 26 0 66 1;
#X connect 26 0 68 1;
#X connect 27 0 22 1;
#X connect 28 0 126 0;
#X connect 29 0 126 0;
#X connect 30 0 126 0;
#X connect 31 0 126 0;
#X connect 32 0 126 0;
#X connect 33 0 126 0;
#X connect 36 0 37 0;
#X connect 37 0 35 0;
#X connect 38 0 8 0;
#X connect 38 0 132 0;
#X connect 41 0 42 0;
#X connect 42 0 40 0;
#X connect 43 0 131 0;
#X connect 44 0 133 0;
#X connect 45 0 46 0;
#X connect 45 0 51 0;
#X connect 46 0 47 0;
#X connect 46 0 49 0;
#X connect 46 0 50 0;
#X connect 47 0 1 1;
#X connect 48 0 120 0;
#X connect 48 0 1 0;
#X connect 48 0 43 0;
#X connect 48 0 44 0;
#X connect 48 2 129 0;
#X connect 49 0 43 1;
#X connect 50 0 44 1;
#X connect 51 0 10 1;
#X connect 52 0 53 0;
#X connect 52 0 129 1;
#X connect 53 0 130 1;
#X connect 54 0 4 0;
#X connect 54 0 7 0;
#X connect 57 0 58 0;
#X connect 58 0 28 0;
#X connect 59 0 60 0;
#X connect 60 0 29 0;
#X connect 61 0 62 0;
#X connect 62 0 30 0;
#X connect 63 0 64 0;
#X connect 64 0 31 0;
#X connect 65 0 66 0;
#X connect 66 0 32 0;
#X connect 67 0 68 0;
#X connect 68 0 33 0;
#X connect 69 0 83 0;
#X connect 70 0 76 0;
#X connect 70 1 77 0;
#X connect 70 1 78 0;
#X connect 70 1 79 0;
#X connect 70 1 80 0;
#X connect 70 1 81 0;
#X connect 71 0 77 0;
#X connect 71 1 76 0;
#X connect 71 1 78 0;
#X connect 71 1 79 0;
#X connect 71 1 80 0;
#X connect 71 1 81 0;
#X connect 72 0 78 0;
#X connect 72 1 76 0;
#X connect 72 1 77 0;
#X connect 72 1 79 0;
#X connect 72 1 80 0;
#X connect 72 1 81 0;
#X connect 73 0 79 0;
#X connect 73 1 76 0;
#X connect 73 1 77 0;
#X connect 73 1 78 0;
#X connect 73 1 80 0;
#X connect 73 1 81 0;
#X connect 74 0 80 0;
#X connect 74 1 76 0;
#X connect 74 1 77 0;
#X connect 74 1 78 0;
#X connect 74 1 79 0;
#X connect 74 1 81 0;
#X connect 75 0 81 0;
#X connect 75 1 76 0;
#X connect 75 1 77 0;
#X connect 75 1 78 0;
#X connect 75 1 79 0;
#X connect 75 1 80 0;
#X connect 76 0 57 0;
#X connect 77 0 59 0;
#X connect 78 0 61 0;
#X connect 79 0 63 0;
#X connect 80 0 65 0;
#X connect 81 0 67 0;
#X connect 82 0 81 1;
#X connect 82 0 80 1;
#X connect 82 0 79 1;
#X connect 82 0 78 1;
#X connect 82 0 76 1;
#X connect 82 0 77 1;
#X connect 83 0 84 0;
#X connect 83 1 70 0;
#X connect 83 2 71 0;
#X connect 83 3 72 0;
#X connect 83 4 73 0;
#X connect 83 5 74 0;
#X connect 83 6 75 0;
#X connect 84 0 76 0;
#X connect 84 0 77 0;
#X connect 84 0 78 0;
#X connect 84 0 79 0;
#X connect 84 0 80 0;
#X connect 84 0 81 0;
#X connect 85 0 88 0;
#X connect 85 0 150 0;
#X connect 86 0 20 0;
#X connect 86 0 153 0;
#X connect 87 0 85 0;
#X connect 87 0 105 0;
#X connect 88 0 90 0;
#X connect 89 0 85 1;
#X connect 90 0 69 0;
#X connect 91 0 150 2;
#X connect 92 0 23 0;
#X connect 93 0 92 1;
#X connect 94 0 86 0;
#X connect 104 0 87 0;
#X connect 104 1 112 1;
#X connect 104 2 91 0;
#X connect 104 3 82 0;
#X connect 104 4 93 0;
#X connect 105 1 69 0;
#X connect 112 0 89 0;
#X connect 114 0 115 0;
#X connect 114 1 134 0;
#X connect 114 1 140 0;
#X connect 114 1 145 0;
#X connect 114 2 119 0;
#X connect 114 2 135 0;
#X connect 114 2 139 0;
#X connect 115 0 116 0;
#X connect 116 0 143 0;
#X connect 116 0 151 0;
#X connect 117 0 142 0;
#X connect 118 0 128 0;
#X connect 119 0 113 0;
#X connect 120 0 5 0;
#X connect 120 0 7 0;
#X connect 121 0 0 0;
#X connect 122 0 24 0;
#X connect 123 0 124 0;
#X connect 124 0 125 0;
#X connect 125 0 126 1;
#X connect 126 0 148 0;
#X connect 127 0 123 0;
#X connect 128 0 34 0;
#X connect 128 0 34 1;
#X connect 128 0 41 0;
#X connect 128 0 36 0;
#X connect 129 0 130 0;
#X connect 130 0 45 0;
#X connect 131 0 7 0;
#X connect 131 0 38 0;
#X connect 132 0 0 0;
#X connect 133 0 9 0;
#X connect 133 0 7 0;
#X connect 134 0 136 0;
#X connect 135 0 136 1;
#X connect 136 0 138 0;
#X connect 137 0 94 0;
#X connect 138 0 115 1;
#X connect 141 0 123 0;
#X connect 142 0 26 0;
#X connect 143 0 141 0;
#X connect 145 0 112 0;
#X connect 145 0 146 0;
#X connect 147 0 34 0;
#X connect 147 0 34 1;
#X connect 148 0 147 0;
#X connect 150 0 137 0;
#X connect 151 0 104 0;
#X connect 152 0 34 0;
#X connect 152 0 34 1;
#X connect 153 0 152 0;
#X coords 0 0 100 1 0 0 0;
