#N canvas 385 95 993 756 10;
#X obj 352 130 t f f f f;
#X obj 543 180 & 192;
#X obj 543 211 >> 6;
#X obj 656 258 == 0;
#X obj 372 258 == 2;
#X obj 498 258 == 1;
#X obj 692 436 >> 4;
#X text 746 392 get sensor number;
#X obj 567 472 == 0;
#X obj 847 475 == 2;
#X obj 708 472 == 1;
#X obj 451 318 spigot;
#X obj 821 559 spigot;
#X obj 631 306 spigot;
#X obj 319 365 spigot;
#X obj 665 559 spigot;
#X obj 341 536 spigot;
#X text 283 688 button array;
#X text 657 688 proximity 1;
#X text 814 688 proximity 2;
#X text 579 201 get byte order;
#X obj 534 406 << 12;
#X obj 449 390 << 6;
#X obj 631 356 t f f;
#X obj 450 429 +;
#X obj 340 483 +;
#X text 248 482 final output;
#X obj 450 585 >> 1;
#X obj 405 585 >> 2;
#X obj 358 585 >> 3;
#X obj 310 585 >> 4;
#X obj 264 585 >> 5;
#X obj 219 585 >> 6;
#X obj 171 585 >> 7;
#X obj 496 585 & 1;
#X obj 405 606 & 1;
#X obj 450 606 & 1;
#X obj 310 606 & 1;
#X obj 358 606 & 1;
#X obj 219 606 & 1;
#X obj 264 606 & 1;
#X obj 126 606 & 1;
#X obj 171 606 & 1;
#X obj 83 585 >> 9;
#X obj 126 585 >> 8;
#X obj 83 606 & 1;
#X floatatom 663 613 5 0 0 0 - - -, f 5;
#X floatatom 817 613 5 0 0 0 - - -, f 5;
#X floatatom 496 627 5 0 0 0 - - -, f 5;
#X floatatom 405 627 5 0 0 0 - - -, f 5;
#X floatatom 358 627 5 0 0 0 - - -, f 5;
#X floatatom 310 627 5 0 0 0 - - -, f 5;
#X floatatom 264 627 5 0 0 0 - - -, f 5;
#X floatatom 219 627 5 0 0 0 - - -, f 5;
#X floatatom 171 627 5 0 0 0 - - -, f 5;
#X floatatom 126 627 5 0 0 0 - - -, f 5;
#X floatatom 83 627 5 0 0 0 - - -, f 5;
#X floatatom 450 627 5 0 0 0 - - -, f 5;
#X text 379 280 third;
#X text 504 276 second;
#X text 674 279 first;
#X obj 534 375 & 15;
#X obj 452 359 & 63;
#X obj 685 396 & 48;
#X msg 280 61 devices;
#X msg 418 61 close;
#X obj 352 85 comport 0 9600;
#X obj 327 425 & 63;
#X obj 351 21 inlet;
#X obj 83 668 outlet;
#X obj 663 632 outlet;
#X obj 817 632 outlet;
#X obj 83 646 pak f f f f f f f f f f, f 60;
#X msg 352 61 open 5;
#X connect 0 0 14 0;
#X connect 0 1 11 0;
#X connect 0 2 13 0;
#X connect 0 3 1 0;
#X connect 1 0 2 0;
#X connect 2 0 3 0;
#X connect 2 0 5 0;
#X connect 2 0 4 0;
#X connect 3 0 13 1;
#X connect 4 0 14 1;
#X connect 5 0 11 1;
#X connect 6 0 8 0;
#X connect 6 0 10 0;
#X connect 6 0 9 0;
#X connect 8 0 16 1;
#X connect 9 0 12 1;
#X connect 10 0 15 1;
#X connect 11 0 62 0;
#X connect 12 0 47 0;
#X connect 13 0 23 0;
#X connect 14 0 67 0;
#X connect 15 0 46 0;
#X connect 16 0 34 0;
#X connect 16 0 27 0;
#X connect 16 0 28 0;
#X connect 16 0 29 0;
#X connect 16 0 30 0;
#X connect 16 0 31 0;
#X connect 16 0 32 0;
#X connect 16 0 33 0;
#X connect 16 0 44 0;
#X connect 16 0 43 0;
#X connect 21 0 24 1;
#X connect 22 0 24 0;
#X connect 23 0 61 0;
#X connect 23 1 63 0;
#X connect 24 0 25 1;
#X connect 25 0 16 0;
#X connect 25 0 15 0;
#X connect 25 0 12 0;
#X connect 27 0 36 0;
#X connect 28 0 35 0;
#X connect 29 0 38 0;
#X connect 30 0 37 0;
#X connect 31 0 40 0;
#X connect 32 0 39 0;
#X connect 33 0 42 0;
#X connect 34 0 48 0;
#X connect 35 0 49 0;
#X connect 36 0 57 0;
#X connect 37 0 51 0;
#X connect 38 0 50 0;
#X connect 39 0 53 0;
#X connect 40 0 52 0;
#X connect 41 0 55 0;
#X connect 42 0 54 0;
#X connect 43 0 45 0;
#X connect 44 0 41 0;
#X connect 45 0 56 0;
#X connect 46 0 70 0;
#X connect 47 0 71 0;
#X connect 48 0 72 9;
#X connect 49 0 72 7;
#X connect 50 0 72 6;
#X connect 51 0 72 5;
#X connect 52 0 72 4;
#X connect 53 0 72 3;
#X connect 54 0 72 2;
#X connect 55 0 72 1;
#X connect 56 0 72 0;
#X connect 57 0 72 8;
#X connect 61 0 21 0;
#X connect 62 0 22 0;
#X connect 63 0 6 0;
#X connect 64 0 66 0;
#X connect 65 0 66 0;
#X connect 66 0 0 0;
#X connect 67 0 25 0;
#X connect 68 0 73 0;
#X connect 72 0 69 0;
#X connect 73 0 66 0;
