#N canvas 2 95 450 300 10;
#X obj 27 16 inlet;
#X obj 27 38 t b f b;
#X obj 97 121 mtof;
#X obj 97 143 osc~;
#X obj 28 269 outlet~;
#X obj 28 194 *~;
#X obj 27 116 line~;
#X obj 27 150 *~;
#X obj 27 87 pack 1 2000;
#X obj 113 62 del 2000;
#X obj 113 84 pack 0 3000;
#X obj 266 103 float \$1;
#X obj 266 59 loadbang;
#X obj 29 216 *~ 0.2;
#X obj 151 269 outlet~;
#X obj 266 136 % 2;
#X obj 29 238 *~, f 7;
#X msg 266 158 1 \$1;
#X obj 266 180 -;
#X obj 148 242 *~, f 7;
#X connect 0 0 1 0;
#X connect 1 0 8 0;
#X connect 1 0 9 0;
#X connect 1 1 2 0;
#X connect 2 0 3 0;
#X connect 3 0 5 1;
#X connect 5 0 13 0;
#X connect 6 0 7 0;
#X connect 6 0 7 1;
#X connect 7 0 5 0;
#X connect 8 0 6 0;
#X connect 9 0 10 0;
#X connect 10 0 6 0;
#X connect 11 0 15 0;
#X connect 12 0 11 0;
#X connect 13 0 16 0;
#X connect 13 0 19 0;
#X connect 15 0 16 1;
#X connect 15 0 17 0;
#X connect 16 0 4 0;
#X connect 17 0 18 0;
#X connect 18 0 19 1;
#X connect 19 0 14 0;
