#N canvas 2 95 450 300 10;
#X obj 27 16 inlet;
#X obj 27 38 t b f b;
#X obj 97 121 mtof;
#X obj 28 269 outlet~;
#X obj 28 194 *~;
#X obj 27 116 line~;
#X obj 27 150 *~;
#X obj 113 84 pack 0 5000;
#X obj 27 87 pack 1 3000;
#X obj 113 62 del 3000;
#X obj 97 143 rect~;
#X obj 29 225 *~ 0.05;
#X connect 0 0 1 0;
#X connect 1 0 8 0;
#X connect 1 0 9 0;
#X connect 1 1 2 0;
#X connect 2 0 10 0;
#X connect 4 0 11 0;
#X connect 5 0 6 0;
#X connect 5 0 6 1;
#X connect 6 0 4 0;
#X connect 7 0 5 0;
#X connect 8 0 5 0;
#X connect 9 0 7 0;
#X connect 10 0 4 1;
#X connect 11 0 3 0;
